<?xml version="1.0" encoding="utf-8"?>
<!-- Generator: Adobe Illustrator 18.0.0, SVG Export Plug-In . SVG Version: 6.00 Build 0)  -->
<!DOCTYPE svg PUBLIC "-//W3C//DTD SVG 1.1//EN" "http://www.w3.org/Graphics/SVG/1.1/DTD/svg11.dtd">
<svg version="1.1" id="Layer_1" xmlns="http://www.w3.org/2000/svg" xmlns:xlink="http://www.w3.org/1999/xlink" x="0px" y="0px"
	 viewBox="0 0 744.4 382.8" enable-background="new 0 0 744.4 382.8" xml:space="preserve">
<g>
	<g>
		<g>
			<path fill="#B5E0D6" d="M120.6,375.5c0.2,0,0.9,0,1,0c0.3,0,0.4,0.1,0.6,0c0.6-0.4,0.7-1.4,0.9-2c0.5-1.2,1.1-2.3,1.6-3.5
				c0-0.1,0.3-0.8,0.4-0.9c0,0,0.1-0.2,0.1-0.2l1.6-3.9c0.2-0.7,0.5-1.2,0.7-1.9c0.4-0.9,0.8-2.5,2.2-2.2c0.1,0,0.6,0.2,0.6,0.3
				c0.2,0.3,0.6,0.8,0.5,1.2c0.5,0.7,0.8,1.5,1,2.3c0.3,0.4,0.4,0.9,0.5,1.4c0.1,0.2,0.1,0,0.2,0.3c0,0,0.2,0.5,0.2,0.6
				c0,0.1,0.2,0.6,0.2,0.6c0.1,0.2,0.3,0.4,0.3,0.6c0.2,0.6,0.3,1.3,0.6,1.9c0,0,0.3,0.3,0.3,0.3c0,0,0.1,0.5,0.1,0.5
				c0.2,0.6,0.6,1.2,0.9,1.8c0.1,0.2,0.6,1.3,0.7,1.6c0,0.2,0.2,0.5,0.3,0.7c0,0,0,0.2,0,0.2c0.3,0.6,1.8,0.1,2.2,0.6
				c0,0,0,0.2,0,0.2c0.1,0.7,0.1,1.2-0.6,1.5c-1.6,0-3.1-0.3-4.6-0.2c-1.3,0-2.1,0.8-2.2-1c0-0.4,0.3-0.7,0.6-0.8
				c0.9,0,2.1,0.6,1.9-0.8c-0.1-0.2-0.4-1.1-0.5-1.3c0,0,0-0.1,0-0.1c-0.3-0.4-0.4-1-0.9-1.1c0,0-0.3,0-0.3,0c0,0-0.3,0-0.3-0.1
				h-4.8c-1,0-1.2,0.7-1.6,1.4c-0.3,0.6-0.6,1.1-0.7,1.7c0.1,0.1,0.2,0.3,0.3,0.4c0.5,0,1.3,0,1.7,0.3c0,0,0,0.1,0.1,0.1
				c0.1,0.2,0.2,0.6,0.2,0.8c-0.1,0.7-1.1,0.9-1.6,0.5c-0.1,0-0.6,0-0.7,0c0,0-0.2,0-0.2,0c0,0-0.3,0-0.3,0c-0.3,0-1.5,0.1-1.8,0.1
				c0,0-0.1,0.1-0.1,0.1c-0.5,0.1-1.1,0.1-1.5,0.1c0,0-0.1-0.1-0.1-0.1C119.9,377.1,119.7,375.5,120.6,375.5z M131.8,370.4
				c0.2-0.1,0.1-0.6,0-0.8c0-0.1-0.4-0.5-0.4-0.6c0-0.1-0.3-1.1-0.4-1.2c0-0.1-0.4-0.7-0.5-0.8c-0.4-0.7-0.5-1.8-0.9-2.5
				c0,0-0.2-0.2-0.2-0.2c0,0,0-0.2,0-0.2c0,0-0.1-0.1-0.1-0.1c0,0-0.1,0-0.1,0c-0.5,0.4-0.6,1.2-0.8,1.7c0,0.1-0.5,1-0.5,1.1
				c-0.3,0.6-0.5,1.3-0.7,1.9c-0.2,0.5-0.5,1-0.4,1.6c0.5,0,1.1,0.1,1.6,0.1c0.2,0,1.4,0,1.6,0C130.6,370.5,131.2,370.5,131.8,370.4
				z"/>
			<path fill="#B5E0D6" d="M142.7,377.3v-1.1c0-0.7,2.2,0,2.5-0.8c0-0.4,0-2.5,0-3c0-1.1,0.1-2.3,0.1-3.4c0.2-0.4-0.1-0.6-0.1-0.9
				c0-0.2,0-0.8,0-0.8l0.1-0.1c0,0,0-0.6,0-0.8c0-0.7-0.2-1.4,0.1-2.1c0-0.1-0.3-0.6-0.3-0.7c-0.1-0.1-0.8-0.3-1-0.2
				c-0.8,0-1.5,0.2-1.6-0.7c-0.1-0.9,1.1-0.8,1.7-0.9c0,0,0.3,0,0.3,0c0,0,0.3,0,0.3,0c0.2-0.1,1-0.4,1.2-0.5
				c0.5-0.1,1.4-0.1,1.5,0.5c0.1,0.3-0.1,2.3-0.3,2.5c0,0.3,0,1.5,0,1.7c0,0.1,0,0.4,0,0.5v3.1c0,0-0.1,0.2-0.1,0.3
				c-0.1,1.2,0,2.1,0,3.2c0,0.1,0,1-0.1,1.1c0,0.4-0.1,1,0.3,1.2c0.6,0.4,3.1-0.3,2.9,1c-0.1,0.4-0.2,0.8-0.6,1c-0.2,0-1,0-1.1,0
				c-0.1,0-0.6-0.1-0.6-0.1c0,0,0,0-0.1,0c-0.1,0-0.7,0.1-0.8,0.1c-0.1,0-0.8-0.1-0.8-0.1c-0.4,0-0.8,0.1-1.2,0.2c0,0-0.2,0-0.2,0
				c-0.1,0-0.7,0-0.8,0c0,0-0.1,0-0.1,0C143.7,377.4,142.7,377.4,142.7,377.3z"/>
			<path fill="#B5E0D6" d="M156.8,377c-0.5-0.4-0.7-0.6-0.9-1.4c0-0.3,0-1.5,0-1.7c0-0.7-0.1-1.4-0.1-2c0-0.8,0.1-1.8,0.1-2.7
				c0-0.1,0.2-1.1-0.2-1.1h-1.2c-0.1-0.3-0.6,0-0.8-0.3c0-0.1,0-0.7,0-0.8c0-0.1,0-0.6,0.3-0.6h1.1c0.3-0.4,0.7-0.6,0.9-1.1
				c0,0,0-0.4,0-0.4c0,0,0-0.4,0-0.4c0-0.3-0.1-0.9,0-1.2c0.2-0.7,0.7-0.9,1.4-0.9c0.3,0,0.6,0,0.7,0.3c0,0.2,0.2,0.7,0,1L158,365
				c-0.2,0.1-0.4,1.4-0.1,1.4h1.5c0.3-0.2,0.6-0.2,1-0.2c1.9-0.1,1,1.8,0.5,1.8l-1.1,0h-0.2l-1.1,0c-0.2,0.1-0.6,0.1-0.7,0
				c-0.1,0-0.1,0.6-0.1,0.8c0,0.1-0.1,1-0.1,1.2c0,0.4,0,0.4,0.1,0.9c0,0.3-0.1,0.7-0.1,1c0,0,0,0.1,0,0.1c0,0.1,0.1,0.9,0.1,1
				c0,0.2,0,1.1,0,1.4c0.1,0.8,1.2,1.6,2,1c0.4-0.3,0.7-1.2,1.2-1.3c0.1,0,0.7,0,0.8,0c0.3,0,0.6,0.7,0.5,1c0,0-0.3,0.3-0.3,0.4
				c0,0,0,0.2-0.1,0.2c-0.7,1-1.8,1.6-3,1.9c0,0-0.1,0-0.1,0c-0.2,0-0.9-0.1-1-0.1C157.3,377.5,157.2,377.3,156.8,377z"/>
			<path fill="#B5E0D6" d="M168.1,377.4c-1.1-0.9-1.2-2.2-0.1-3.2c0.7-0.6,1.8-0.4,2.3,0.3c0.1,0.1,0.4,0.5,0.5,0.7
				c0,0.5,0,1-0.1,1.5c-0.2,0.6-1.1,1-1.6,0.9c0,0-0.4-0.1-0.5-0.1C168.5,377.5,168.3,377.6,168.1,377.4z"/>
			<path fill="#B5E0D6" d="M177.3,375.8c0,0-0.2-0.2-0.2-0.3c-0.2-0.4-0.6-0.6-0.8-1c0,0,0-0.4-0.1-0.4c-0.1-0.2-0.3-0.3-0.3-0.6
				c-0.1-0.6,0-0.6-0.2-1c-0.1-0.9,0-1.8,0.3-2.7c0,0,0.1-0.2,0.1-0.2c0.7-1.1,1.5-2.3,2.7-2.9c2.1-0.6,3.8-0.6,5.7,0.6l1.4,1.5
				c0,0,0.1,0.2,0.1,0.2c0,0.1,0.3,0.8,0.3,0.9c0.1,0.4,0.3,1.1-0.1,1.4c-0.2,0.2-1.7,0.4-2,0.4c-0.5-0.1-0.9,0-1.4,0.1
				c-0.3,0-0.5-0.1-0.8-0.1c-0.7,0.1-1.5,0.2-2.2,0.2c-0.5,0-2.2-0.5-2,0.6c0,0.2,0.1,0.9,0.2,1c0.7,1.2,1.4,1.7,2.5,2.2
				c0,0,0.1,0,0.1,0c0.9-0.1,1.9,0,2.7-0.3c0.9-0.3,1.9-2,2.8-0.8c0.1,0.1,0.3,0.4,0.3,0.4v0.8c0,0.6-2.1,1.6-2.8,1.7
				c-0.2,0.1-1.1,0.3-1.2,0.3c0,0-0.3,0-0.4,0c0,0-0.2-0.1-0.3-0.1C180,377.6,178.6,377.2,177.3,375.8z M177.9,370.6
				c1.3,0.1,2.5-0.1,3.7-0.2c0.4,0,2.3-0.2,2.3-0.7c0-0.1,0-0.4,0-0.4l-0.8-0.8c-0.2-0.1-0.3-0.2-0.5-0.3c-0.9-0.5-2-0.3-2.9,0
				c0,0-0.5,0.1-0.6,0.1c-0.4,0.1-0.8,1-1,1.3c-0.1,0.2-0.4,0.6-0.4,0.8C177.7,370.5,177.8,370.6,177.9,370.6z"/>
			<path fill="#B5E0D6" d="M195.5,377.3c-0.1,0-0.5-0.1-0.6-0.1h0c-0.5,0-2.6,0.1-3.1,0.1c-1.2,0.4-1.7-1.4-1-1.7
				c0.3-0.1,1-0.2,1.3-0.2c0.7,0.1,0.6,0.1,1-0.4c0.1-0.8,0-1.1,0-1.9c-0.1-0.8,0.2-1.7,0-2.4c0-0.3-0.2-0.7-0.1-0.9
				c0-0.2,0.4-0.6,0.1-0.8c-0.2-0.2-0.6-0.1-0.9-0.3c-0.6-0.3-1.8,0.3-1.9-0.7c-0.1-0.5,0-0.8,0.5-1c0.2,0,0.9-0.1,1.1-0.1
				c0.3,0,0.7,0,1-0.1c0.6-0.2,1.3-0.5,2-0.4c1.2,0.2-0.9,3.3,1.4,1.5c0.1-0.1,0,0,0.1-0.2c0-0.1,0.3-0.4,0.4-0.5v-0.2
				c0.3,0.1,0.4-0.2,0.7-0.3c0.5-0.1,1.1-0.4,1.6-0.3c0.3,0,0.7,0.2,1,0.4c0.1,0,0.5,0.3,0.5,0.3c0,0,0.1,0,0.1,0
				c0.2,0.4,0.3,0.5,0.4,0.9c0,0.2-0.1,1.1-0.3,1.4c-0.2,0.4-0.5,0.8-1,0.9c-1.4,0.3-1.9-1.5-2.9-1.1c0,0-0.3,0.2-0.4,0.2
				c0,0-0.1,0-0.1,0.1c-0.2,0.1-1.1,0.7-1.2,0.9c-0.1,0-0.2,0-0.2,0.2c0,0.4,0,2.2,0,2.6c0,0,0,0.5,0,0.6c0,0.5-0.3,1.3,0.1,1.7
				c0.2,0.2,0.9,0,1.1,0c0,0,0.1,0,0.1,0c0.5,0.2,1,0,1.5,0.2c0.5,0.3,0.6,1.6,0,1.8c-0.5,0.2-0.8,0-1.3-0.1
				C196.5,377.3,195.6,377.3,195.5,377.3z"/>
			<path fill="#B5E0D6" d="M205.1,376.5c0-0.5,0-0.9,0.6-1c0.1,0,0.7,0,0.8,0c0.5-0.2,0.3-2.1,0.3-2.6c0-0.2,0-0.9,0-1.1
				c0,0,0.1-0.4,0.1-0.4c0-0.7-0.3-1.5,0-2.2l-0.1-0.6c0-0.2-0.5-0.3-0.6-0.1h-1c-0.2,0-0.4-0.4-0.4-0.5c0-0.1,0-0.7,0-0.8
				c0-0.1,0.2-0.5,0.4-0.5h1.7c0.3-0.2,0.8-0.3,1.1-0.3c0.1,0,0.5,0,0.6,0c0.7,0-0.3,2.5,0.5,2c0.1-0.2,0.8-0.8,1-0.9
				c0.4-0.3,1-0.6,1.2-1c0.1,0,0.7,0,0.9-0.1c1.3-0.1,2.2,0.3,3.1,1.4c0.4,0.5,0.9,1,1,1.6c0.1,0.5,0,1.5-0.2,2
				c0,0.1,0.1,0.2,0.1,0.4c-0.1,0.3,0,0.4,0,0.7c0,0.9,0.1,1.9,0,2.8c0.1,0.1,0.2,0.2,0.3,0.3c0.1,0,0.7,0,0.8,0c0,0,0.2,0,0.2,0
				c0.2,0,0.5,0.4,0.5,0.6c0.1,0.4,0,0.4-0.1,0.8c-0.1,0.2-0.1,0.3-0.3,0.3c-1,0.1-2.1-0.1-3.1-0.1c-0.8,0-2.3,0.6-2.4-0.6
				c0-0.3,0-0.5,0.3-0.6c0.1,0,0.7-0.2,0.8-0.2c0.2,0,0.8,0,0.9-0.2c0,0,0-0.4,0-0.4c0.1-1.1,0.1-1.8,0.1-2.9c0-0.3,0.2-1.2,0.2-1.3
				c-0.1-0.5-0.2-1-0.4-1.5c-0.5-1-1.7-1.3-2.7-1.3c0,0-0.2,0.2-0.2,0.2c-0.9,0.6-2,1.1-2.3,2.2c0,0.2-0.3,1-0.3,1.2
				c0,0,0.2,0.5,0.2,0.6v1.6c-0.1,0.3,0,0.6,0,1c0.1,0.1,0.5,0.5,0.5,0.5c0,0,0.2,0.1,0.3,0.1c0,0,0.4,0,0.5,0
				c0.2,0.1,0.2,0.3,0.5,0.2c0,0,0.3,0.3,0.3,0.3c0.2,0.2,0.1,0.7,0.1,0.8c0,0.6-1.4,0.1-1.6,0.2c-1.3-0.1-2.5,0.3-3.8,0.2
				c0,0-0.1,0-0.1-0.1C205.2,377.1,205.1,376.8,205.1,376.5z"/>
			<path fill="#B5E0D6" d="M230.3,377.4c0,0-0.3-0.4-0.3-0.4c-0.1-0.1-0.5-0.2-0.6-0.2c-0.9,0.6-2.2,0.8-3.3,0.9
				c-0.4,0.1-1.2,0-1.6-0.2c-0.2-0.1-0.7-0.3-1.1-0.4l-0.6-0.6c-0.1-0.5-0.7-0.7-0.8-1.5c0-0.1,0-1,0-1.2c0.1-1.9,2.7-2.8,4.2-2.7
				c0.3-0.3,3.4,0,3.4-0.8v-1.3c0,0-0.2-0.5-0.3-0.6c-0.3-0.5-0.9-0.5-1.4-0.5c-0.3,0-0.3-0.2-0.6-0.1c-0.2,0-1,0.1-1.1,0.1
				c-0.4,0.2-0.6,0.7-1.1,0.8c0,0-0.5,0.1-0.6,0.1c-0.3,0-0.7,0.2-1,0.2c-1.4-0.3-1.3-1.4-0.2-2.1c0,0,0.5-0.2,0.6-0.2
				c0,0,0.2-0.2,0.2-0.2c0.1,0,0.7-0.2,0.9-0.2c0,0,0.4,0,0.5,0c0.2,0,0.3-0.2,0.6-0.2h1.3l0.3,0.1c0.6,0,1.6-0.1,2.2,0.3
				c0.2,0.2,1,0.8,1.2,0.9c1.3,1,0.6,2.9,0.7,4.4l-0.1,0.2c0,1.1-0.2,2.2-0.1,3.3c0,0.3,0.4,0.4,0.6,0.4c0.5-0.1,0.8-0.6,1.3-0.7
				c0.8-0.1,0.9,0.5,1.1,1.1c0.2,0.6-0.7,1.1-1.2,1.4c0,0-0.3,0.1-0.4,0.2c-0.5,0.1-1.3,0.3-1.9,0.2
				C230.8,377.8,230.5,377.6,230.3,377.4z M225.5,375.7c0.2,0,1.1,0,1.2,0c0.5,0,2.5-0.2,2.7-1c0-0.1,0-0.5,0-0.6c0-0.2,0-0.8,0-0.9
				c0-0.2-0.1-1-0.4-1h-1.3l-1.9,0.5c-0.2,0.3-0.7,0.3-0.9,0.6c-0.4,0.5-0.9,1.8,0,2.2C225,375.5,225.4,375.7,225.5,375.7z"/>
			<path fill="#B5E0D6" d="M241.6,377c-0.5-0.4-0.7-0.6-0.9-1.4c0-0.3,0-1.5,0-1.7c0-0.7-0.1-1.4-0.1-2c0-0.8,0.1-1.8,0.1-2.7
				c0-0.1,0.2-1.1-0.2-1.1h-1.2c-0.1-0.3-0.6,0-0.8-0.3c0-0.1,0-0.7,0-0.8c0-0.1,0-0.6,0.3-0.6h1.1c0.3-0.4,0.7-0.6,0.9-1.1
				c0,0,0-0.4,0-0.4c0,0,0-0.4,0-0.4c0-0.3-0.1-0.9,0-1.2c0.2-0.7,0.7-0.9,1.4-0.9c0.3,0,0.6,0,0.7,0.3c0,0.2,0.2,0.7,0,1l-0.2,1.2
				c-0.2,0.1-0.4,1.4-0.1,1.4h1.5c0.3-0.2,0.6-0.2,1-0.2c1.9-0.1,1,1.8,0.5,1.8l-1.1,0h-0.2l-1.1,0c-0.2,0.1-0.6,0.1-0.7,0
				c-0.1,0-0.1,0.6-0.1,0.8c0,0.1-0.1,1-0.1,1.2c0,0.4,0,0.4,0.1,0.9c0,0.3-0.1,0.7-0.1,1c0,0,0,0.1,0,0.1c0,0.1,0.1,0.9,0.1,1
				c0,0.2,0,1.1,0,1.4c0.1,0.8,1.2,1.6,2,1c0.4-0.3,0.7-1.2,1.2-1.3c0.1,0,0.7,0,0.8,0c0.3,0,0.6,0.7,0.5,1c0,0-0.3,0.3-0.3,0.4
				c0,0,0,0.2-0.1,0.2c-0.7,1-1.8,1.6-3,1.9c0,0-0.1,0-0.1,0c-0.2,0-0.9-0.1-1-0.1C242,377.5,241.9,377.3,241.6,377z"/>
			<path fill="#B5E0D6" d="M252.3,377.1c-0.4,0-0.6,0.1-1.1-0.1c-0.3-0.1-0.4-1.4,0.2-1.5l1.1-0.1c0.1,0,0.3-0.3,0.4-0.4
				c0-0.1,0-0.7,0-0.8c0-0.6-0.1-1.2-0.1-1.9c0-0.3,0.1-0.7,0.1-1c0-0.3-0.1-0.3,0-0.6c0-0.2,0-1.4,0-1.7c0-0.1-0.1-0.5-0.1-0.5
				c-0.4-0.5-1.2-0.3-1.7-0.5c-0.4-0.3-0.3-1.4,0.2-1.4h1.6c0.4-0.1,1.3-0.5,1.7-0.2c0.4,0.2,0.3,2.9,0.1,3.5c0,0.2,0.1,0.5,0,0.7
				c0,0-0.2,0.3-0.2,0.4c0,0.1,0,0.1,0.1,0.2c0.1,0.6,0.1,1.3,0.1,1.8c0,0-0.1,0.2-0.1,0.3c-0.1,0.2-0.1,2.3,0.3,2.3h1.2
				c0.6,0,0.6,0.8,0.5,1.2c-0.2,0.6-1.5,0.6-2,0.5C253.9,377.1,253.1,377.2,252.3,377.1z M252.2,363c0-0.8,0-1.3,0.6-1.8
				c0,0,0.1-0.1,0.2-0.1c0,0,0.1-0.1,0.1-0.1h1c0,0,0.2,0.1,0.3,0.2c0.3,0.3,0.6,0.5,0.7,0.9c0.1,0.6-0.2,1.8-1,1.8h-1
				c0,0-0.1,0-0.2-0.1C252.7,363.7,252.4,363.4,252.2,363z"/>
			<path fill="#B5E0D6" d="M265.9,376.5c0-0.2-0.3-0.9-0.3-1.1c0-0.1-0.1-0.2-0.2-0.2v-0.7c-0.3-0.2-0.9-1.1-0.8-1.4
				c-0.1-0.1-0.5-0.9-0.5-1c0,0-0.1-0.4-0.1-0.5c-0.2-0.5-0.7-1-0.8-1.6l-0.6-0.7c0-0.4-0.3-1.1-0.8-1.2c-0.5-0.1-0.7,0-1.2-0.3
				c-0.1-0.2-0.1-0.5-0.1-0.7c0-0.1,0-0.5,0-0.5l0.1-0.1c0,0,0.5,0,0.7,0c0.4,0,1.1,0.2,1.4,0.1c0.7-0.1,1.5-0.1,2.2-0.1
				c0.3-0.3,1.2,0,1.2,0.4c0.2,1.7-1.5,0.7-1.8,1.5c-0.2,0.5,0.6,1.5,0.8,2c0.1,0.2,0.1,0.5,0.3,0.6c0.1,0.2,0.4,0.3,0.5,0.6
				c0,0,0,0.2,0,0.2c0.1,0.3,0.2,0.8,0.5,1.1c0,0,0.4,0.5,0.4,0.5c0.1,0.1,0.3,0.5,0.3,0.6c0.1,0,0.4,0,0.5-0.1l1.1-2.2
				c0-0.6,0.3-0.6,0.6-1.2c0-0.1,0.2-0.7,0.2-0.7c0-0.1,0.3-0.7,0.5-0.9c0.1-0.2,0.4-0.6,0.1-0.8c-0.1,0-0.6-0.1-0.7-0.2
				c-0.6-0.2-0.6-1.6,0.5-1.6c0.2,0,1.6,0.1,1.7,0.1c0.3,0,1.5,0,1.8,0c0.4,0.1,0.5,0.6,0.4,1c-0.2,0.7-1.1,0.2-1.6,0.6
				c-0.4,0.4-0.8,1.3-1,1.8c-0.4,0.9-0.6,1.4-1,2.3c0,0-0.1,0.3-0.1,0.4c-0.2,0.9-0.7,1.5-1,2.3c0,0.1-0.2,0.7-0.3,0.8
				c0,0-0.2,0.5-0.3,0.5c0,0-0.1,0.5-0.1,0.6c-0.2,0.6-1,0.6-1.5,0.5C266.3,377.1,266.3,376.7,265.9,376.5z"/>
			<path fill="#B5E0D6" d="M279.2,375.8c0,0-0.2-0.2-0.2-0.3c-0.2-0.4-0.6-0.6-0.8-1c0,0,0-0.4-0.1-0.4c-0.1-0.2-0.3-0.3-0.3-0.6
				c-0.1-0.6,0-0.6-0.2-1c-0.1-0.9,0-1.8,0.3-2.7c0,0,0.1-0.2,0.1-0.2c0.7-1.1,1.5-2.3,2.7-2.9c2.1-0.6,3.8-0.6,5.7,0.6l1.4,1.5
				c0,0,0.1,0.2,0.1,0.2c0,0.1,0.3,0.8,0.3,0.9c0.1,0.4,0.3,1.1-0.1,1.4c-0.2,0.2-1.7,0.4-2,0.4c-0.5-0.1-0.9,0-1.4,0.1
				c-0.3,0-0.5-0.1-0.8-0.1c-0.7,0.1-1.5,0.2-2.2,0.2c-0.5,0-2.2-0.5-2,0.6c0,0.2,0.1,0.9,0.2,1c0.7,1.2,1.4,1.7,2.5,2.2
				c0,0,0.1,0,0.1,0c0.9-0.1,1.9,0,2.7-0.3c0.9-0.3,1.9-2,2.8-0.8c0.1,0.1,0.3,0.4,0.3,0.4v0.8c0,0.6-2.1,1.6-2.8,1.7
				c-0.2,0.1-1.1,0.3-1.2,0.3c0,0-0.3,0-0.4,0c0,0-0.2-0.1-0.3-0.1C281.9,377.6,280.5,377.2,279.2,375.8z M279.8,370.6
				c1.3,0.1,2.5-0.1,3.7-0.2c0.4,0,2.3-0.2,2.3-0.7c0-0.1,0-0.4,0-0.4l-0.8-0.8c-0.2-0.1-0.3-0.2-0.5-0.3c-0.9-0.5-2-0.3-2.9,0
				c0,0-0.5,0.1-0.6,0.1c-0.4,0.1-0.8,1-1,1.3c-0.1,0.2-0.4,0.6-0.4,0.8C279.7,370.5,279.8,370.6,279.8,370.6z"/>
			<path fill="#B5E0D6" d="M303.1,376.7c0-0.1,0.1-0.6,0.1-0.7c0.3-1.1,2.6,0.2,2.7-1.1c0-0.2,0-0.6-0.1-0.9v-4.5
				c0.1-0.2,0-0.3,0.1-0.5c0-0.2,0.1-0.1,0.1-0.3c0.1-0.3-0.1-0.6-0.1-0.9c0-0.5,0-1,0.2-1.4c0-0.1-0.1-0.6-0.1-0.6
				c0-0.8,0.3-1.8,0.1-2.6c-0.2-0.1-0.4-0.1-0.6-0.1c-0.6-0.2-1.2,0-1.9-0.3c-0.1-0.1-0.2-0.3-0.3-0.4c0-0.5-0.1-1.2,0.6-1.3
				c0.8,0,1.4,0.1,2.2,0.1c1.5,0,2.1-0.2,2.5,1.6c0,0.3,0.4,0.4,0.3,0.8c0.1,0.3,0.8,1.7,1,2.1c0.4,0.8,0.8,1.5,1.2,2.2
				c0,0.1,0.2,0.4,0.2,0.4c0,0,0,0.2,0,0.3c0,0.1,0.5,0.7,0.5,0.8c0,0,0.1,0.1,0.1,0.1c0,0.1,0.2,0.6,0.2,0.7
				c0.2,0.4,1.4,2.5,1.3,2.8l0.3,0.6c0.1,0,0.4,0.3,0.5,0.3c0.7-0.4,1.4-3,1.8-3.2c0-0.4,0.2-1.1,0.6-1.4c0.1-0.7,0.4-1.2,0.7-1.8
				c0.1-0.2,0.3-0.4,0.3-0.7l0.8-1.3c0-0.4,0.1-0.4,0.2-0.7c0,0,0.1-0.5,0.1-0.6c0,0,0.2-0.2,0.2-0.3c0.4-0.6,0.8-2.3,1.4-2.7
				c0.6-0.4,1.1,0,1.7,0c0.6,0,1.3-0.1,2-0.1c0.7,0,0.9,1.6,0.2,1.8c-0.2,0-1.1,0.2-1.2,0.2c-0.4,0.1-0.6,0.4-0.5,0.8l-0.1,0.1
				c0,0.1,0,0.5,0,0.6c-0.1,0.5,0,0.7,0,1.2c0,0.3,0,2,0,2.3c0.2,0.7-0.1,1.3,0,2v2.4c-0.1,0.1,0,0.3,0,0.4c0,0.2-0.1,1.1-0.1,1.3
				c-0.1,0.3-0.1,0.2,0.2,0.5c0,0,0.1,0.1,0.1,0.2c0,0,0,0.2,0,0.3c0,0,0.1,0,0.1,0c1.2,0.4,2.9-0.2,2.1,1.8
				c-0.4,0.4-2.8,0.1-3.4,0.1c-0.1,0-1.2,0-1.3,0c-0.5,0-1.1,0.1-1.6,0.1c-0.6,0-0.7-1-0.5-1.3c0.1-0.1,0.3-0.3,0.3-0.3
				c0,0,0.2,0,0.3,0c0.3,0,1.5,0,1.7-0.3c0.1-0.2,0.3-0.4,0.3-0.6c0-0.1,0-0.5,0-0.6c0,0-0.1-0.4-0.1-0.5c0,0,0.1-0.3,0.1-0.3
				c0.1-0.9,0-1.8,0.1-2.7c0-0.2-0.1-0.3-0.1-0.6c0.1-0.8,0.2-1.4,0.1-2.2c-0.1-0.1-0.1-1.3-0.1-1.6c0-0.1,0-0.5,0-0.5
				c0-0.1,0-0.6,0-0.7c0-0.1-0.3-0.1-0.3-0.1c0,0-1,1.8-1.1,2c0,0-0.2,0.6-0.2,0.7c-0.3,0.6-0.7,1.1-1,1.7c-0.3,0.7-0.5,1.5-0.9,2.2
				c0,0.1-0.4,0.6-0.5,0.6c-0.2,0.3-0.2,0.8-0.4,1.1c-0.2,0.3-0.3,0.4-0.5,0.6c-0.1,0.4-0.6,1.9-0.8,2.1l-0.3,0.9
				c0,0.1-0.2,0.2-0.3,0.2c-0.1,0-0.6,0-0.7,0c-0.4-0.1-0.3-0.5-0.4-0.8c0,0-0.1-0.2-0.1-0.2c0,0-0.1-0.1-0.1-0.1
				c0-0.1-0.3-1-0.3-1.1c0-0.1-0.4-0.8-0.5-0.9c0,0,0-0.2,0-0.3c-0.1-0.5-0.2-0.7-0.5-1.1c-0.3-0.4-0.4-1.1-0.6-1.5
				c0-0.1-0.2-0.4-0.2-0.5c0,0-0.2-0.2-0.2-0.2c0-0.1-0.2-0.6-0.2-0.6c-0.1-0.4-0.7-1-0.6-1.5c-0.4-0.3-0.6-0.8-1-1.1
				c0-0.1-0.1-0.6-0.2-0.6c0-0.1-0.2-0.5-0.3-0.5c-0.1-0.4,0.1-0.5-0.5-0.5c0,0,0,0,0,0.1v1.7c0.1,0.2,0,1.5,0,1.8
				c0,0.8,0.1,1.7,0.1,2.5c-0.1,0.1-0.1,0.4,0,0.6v2.6c0,0.2,0.3,0.3,0.5,0.5h1.4c0.2,0,0.4,0.2,0.4,0.4c0.2,0.8,0.3,1.5-0.8,1.5
				c-0.4,0-2.4-0.1-2.9-0.1c-0.4-0.1-0.4,0-0.8,0.1c0,0-0.3,0-0.4,0c-0.2,0-0.8,0.1-0.9,0.1c-0.3,0-0.8,0.3-1.1,0.1
				C303.2,377.2,303.1,376.9,303.1,376.7z"/>
			<path fill="#B5E0D6" d="M332.3,377.2c0,0-0.5-0.4-0.5-0.4c0,0-0.4-0.2-0.4-0.3c-0.2-0.1-0.9-0.8-1-1c0,0-0.1-0.1-0.1-0.2
				c-0.3-0.5-0.6-0.8-0.8-1.4c0-0.2,0-0.3-0.1-0.5c-0.2-0.9-0.1-1.7-0.1-2.6c0,0,0-0.3,0-0.3c0.2-0.6,0.2-1.1,0.4-1.6
				c0.2-0.5,0.7-1,1-1.4c1.1-1.1,2.8-1.5,4.3-1.4c0.1,0,0.3,0.1,0.4,0.1c1.3,0.4,1.9,0.2,3.2,1.2c0.1,0.3,0.5,0.5,0.7,0.7
				c1.2,1.8,1.6,3.7,1,5.8c0,0.1-0.3,0.8-0.3,0.8c-0.1,0.3-0.1,0.6-0.3,0.8c0,0-0.2,0-0.2,0c-1.4,1.1-2.5,2.2-4.4,2
				C334.1,377.5,333.1,377.6,332.3,377.2z M334.7,375.9c0.1,0,0.4,0,0.4,0c0.2,0,1.3-0.3,1.5-0.3c0.1,0,1.2-0.8,1.2-1
				c0,0,0-0.4,0-0.4c0,0,0.1-0.2,0.1-0.3c0.1-0.2,0.3-0.3,0.4-0.6c0.2-0.6,0-1.7-0.1-2.3c0-0.1,0-0.7,0-0.7
				c-0.4-0.6-0.6-1.2-1.2-1.7c0,0-0.1,0-0.1,0c0,0-0.1-0.4-0.2-0.4c-0.4-0.4-1.1-0.6-1.5-0.7c-0.5-0.2-1,0-1.5,0l-1.2,0.5
				c-0.3,0.2-0.5,0.6-0.8,0.9c-0.1,0-0.3,0.3-0.3,0.3c-0.2,0.2-0.2,0.9-0.3,1.2c0,0-0.2,0.4-0.2,0.4c0,0,0.1,0.2,0.1,0.3
				c0,0,0,0.5,0,0.6c0,0-0.1,0.4-0.1,0.5c0,0.9,0.1,1.7,0.6,2.4c0.4,0.6,1,0.8,1.6,1.2c0.1,0,0.5,0,0.6,0
				C334,375.9,334.6,375.9,334.7,375.9z"/>
			<path fill="#B5E0D6" d="M349.2,377.4c-0.1,0-0.3-0.1-0.3-0.1c-0.1-0.1-0.6-0.8-1-0.7c-0.3,0.1-0.4,0.8-0.5,1
				c-0.2,0.3-0.6,0.2-0.9,0.3c-0.5,0-0.8-0.5-0.8-1l0.4-3c0-0.2-0.1-0.4-0.1-0.5c-0.1-0.9,0.1-1.7,0.1-2.6c-0.1-0.4,0-0.6,0-0.9
				c-0.2-1.6-0.1-3.3-0.2-4.9c0-0.3,0.2-1-0.2-1.2c-0.1,0-0.6-0.2-0.7-0.3c-0.5-0.2-0.6-0.2-0.7-0.8c-0.1-0.6,0.4-0.9,0.8-1
				c0.3,0,1.4-0.2,1.7-0.2c0.2-0.2,0.6-0.2,0.9-0.1c0.6,0.1,0.5,0.9,0.4,1.3c0,1.1-0.1,2.3-0.2,3.5c0,0.6,0.1,1,0,1.6
				c0.1,0,1.6-0.9,1.9-1c0.2,0,0.8-0.1,1-0.2c0.5,0,1.2,0,1.7,0.1c2.9,1.5,3.9,2.6,3.8,6.1c-0.1,0.2,0,0.4-0.1,0.7
				c-0.1,1.5-0.8,2.8-1.9,3.8c-0.6,0.6-1.6,1.2-2.5,1.1c-0.4-0.1-1.5-0.2-1.5-0.3C350.1,377.9,349.3,377.5,349.2,377.4z
				 M352.7,375.6c0.4-0.2,0.7-0.6,1-0.9c0.6-0.9,0.6-2.8,0.6-3.8c-0.1-0.3-0.2-0.5-0.4-0.7c-0.5-1-0.8-1.8-2-2.1c-0.2,0-1.2,0-1.4,0
				c-0.1,0-0.4,0-0.5,0.1c-0.4,0.1-1.5,0.5-1.5,0.5l-0.6,0.6c-0.4,0.3-0.1,1.6-0.1,2c0,1-0.5,4.2,1,4.4c0.1,0,0.3,0,0.3,0.1
				c0,0,0.2,0.1,0.3,0.1C350.1,376.1,352.1,376,352.7,375.6z"/>
			<path fill="#B5E0D6" d="M361.5,377.1c-0.4,0-0.6,0.1-1.1-0.1c-0.3-0.1-0.4-1.4,0.2-1.5l1.1-0.1c0.1,0,0.3-0.3,0.4-0.4
				c0-0.1,0-0.7,0-0.8c0-0.6-0.1-1.2-0.1-1.9c0-0.3,0.1-0.7,0.1-1c0-0.3-0.1-0.3,0-0.6c0-0.2,0-1.4,0-1.7c0-0.1-0.1-0.5-0.1-0.5
				c-0.4-0.5-1.2-0.3-1.7-0.5c-0.4-0.3-0.3-1.4,0.2-1.4h1.6c0.4-0.1,1.3-0.5,1.7-0.2c0.4,0.2,0.3,2.9,0.1,3.5c0,0.2,0.1,0.5,0,0.7
				c0,0-0.2,0.3-0.2,0.4c0,0.1,0,0.1,0.1,0.2c0.1,0.6,0.1,1.3,0.1,1.8c0,0-0.1,0.2-0.1,0.3c-0.1,0.2-0.1,2.3,0.3,2.3h1.2
				c0.6,0,0.6,0.8,0.5,1.2c-0.2,0.6-1.5,0.6-2,0.5C363.1,377.1,362.3,377.2,361.5,377.1z M361.5,363c0-0.8,0-1.3,0.6-1.8
				c0,0,0.1-0.1,0.2-0.1c0,0,0.1-0.1,0.1-0.1h1c0,0,0.2,0.1,0.3,0.2c0.3,0.3,0.6,0.5,0.7,0.9c0.1,0.6-0.2,1.8-1,1.8h-1
				c0,0-0.1,0-0.2-0.1C361.9,363.7,361.6,363.4,361.5,363z"/>
			<path fill="#B5E0D6" d="M370.1,377.3v-1.1c0-0.7,2.2,0,2.5-0.8c0-0.4,0-2.5,0-3c0-1.1,0.1-2.3,0.1-3.4c0.2-0.4-0.1-0.6-0.1-0.9
				c0-0.2,0-0.8,0-0.8l0.1-0.1c0,0,0-0.6,0-0.8c0-0.7-0.2-1.4,0.1-2.1c0-0.1-0.3-0.6-0.3-0.7c-0.1-0.1-0.8-0.3-1-0.2
				c-0.8,0-1.5,0.2-1.6-0.7c-0.1-0.9,1.1-0.8,1.7-0.9c0,0,0.3,0,0.3,0c0,0,0.3,0,0.3,0c0.2-0.1,1-0.4,1.2-0.5
				c0.5-0.1,1.4-0.1,1.5,0.5c0.1,0.3-0.1,2.3-0.3,2.5c0,0.3,0,1.5,0,1.7c0,0.1,0,0.4,0,0.5v3.1c0,0-0.1,0.2-0.1,0.3
				c-0.1,1.2,0,2.1,0,3.2c0,0.1,0,1-0.1,1.1c0,0.4-0.1,1,0.3,1.2c0.6,0.4,3.1-0.3,2.9,1c-0.1,0.4-0.2,0.8-0.6,1c-0.2,0-1,0-1.1,0
				c-0.1,0-0.6-0.1-0.6-0.1c0,0,0,0-0.1,0c-0.1,0-0.7,0.1-0.8,0.1c-0.1,0-0.8-0.1-0.8-0.1c-0.4,0-0.8,0.1-1.2,0.2c0,0-0.2,0-0.2,0
				c-0.1,0-0.7,0-0.8,0c0,0-0.1,0-0.1,0C371,377.4,370.1,377.4,370.1,377.3z"/>
			<path fill="#B5E0D6" d="M382.8,375.8c0,0-0.2-0.2-0.2-0.3c-0.2-0.4-0.6-0.6-0.8-1c0,0,0-0.4-0.1-0.4c-0.1-0.2-0.3-0.3-0.3-0.6
				c-0.1-0.6,0-0.6-0.2-1c-0.1-0.9,0-1.8,0.3-2.7c0,0,0.1-0.2,0.1-0.2c0.7-1.1,1.5-2.3,2.7-2.9c2.1-0.6,3.8-0.6,5.7,0.6l1.4,1.5
				c0,0,0.1,0.2,0.1,0.2c0,0.1,0.3,0.8,0.3,0.9c0.1,0.4,0.3,1.1-0.1,1.4c-0.2,0.2-1.7,0.4-2,0.4c-0.5-0.1-0.9,0-1.4,0.1
				c-0.3,0-0.5-0.1-0.8-0.1c-0.7,0.1-1.5,0.2-2.2,0.2c-0.5,0-2.2-0.5-2,0.6c0,0.2,0.1,0.9,0.2,1c0.7,1.2,1.4,1.7,2.5,2.2
				c0,0,0.1,0,0.1,0c0.9-0.1,1.9,0,2.7-0.3c0.9-0.3,1.9-2,2.8-0.8c0.1,0.1,0.3,0.4,0.3,0.4v0.8c0,0.6-2.1,1.6-2.8,1.7
				c-0.2,0.1-1.1,0.3-1.2,0.3c0,0-0.3,0-0.4,0c0,0-0.2-0.1-0.3-0.1C385.5,377.6,384.1,377.2,382.8,375.8z M383.4,370.6
				c1.3,0.1,2.5-0.1,3.7-0.2c0.4,0,2.3-0.2,2.3-0.7c0-0.1,0-0.4,0-0.4l-0.8-0.8c-0.2-0.1-0.3-0.2-0.5-0.3c-0.9-0.5-2-0.3-2.9,0
				c0,0-0.5,0.1-0.6,0.1c-0.4,0.1-0.8,1-1,1.3c-0.1,0.2-0.4,0.6-0.4,0.8C383.2,370.5,383.3,370.6,383.4,370.6z"/>
			<path fill="#B5E0D6" d="M406.7,376.4c-0.2-1.8,3.1-0.1,3.1-1.4v-4c0.2-0.6,0-1.3,0-1.9c0-0.1,0-1.3,0.1-1.4c0-0.4,0-2,0-2.4
				c-0.1-0.4,0.2-0.9,0.1-1.3c0-0.1-0.2-0.5-0.2-0.6c-0.4-0.2-1.6-0.2-2.1-0.3c-0.4-0.1-0.5-0.4-0.5-0.8c-0.1-0.6,0.3-1,0.8-1
				c1.2,0,2.3,0,3.4,0.2c2.1,0,4.1-0.1,6.2-0.1c0.9,0.1,1.7,0.6,2.4,1.3c0,0,0.1,0,0.1,0.1c1.6,1.5,1.3,3.3-0.2,4.7
				c-0.3,0.3-0.8,0.5-1.1,0.8c-0.1,0.2,1.5,0.8,1.7,1c1.4,1.1,2.1,2,2,3.9c0,0,0,0.5,0,0.5c0,0.1-0.3,0.8-0.3,0.9
				c-0.5,0.4-0.8,1-1.3,1.5c-0.1,0.1-0.9,0.5-1,0.5c0,0-0.2,0.1-0.2,0.1c-0.1,0.1-0.6,0.3-0.6,0.3c-0.3,0.1-1.4,0.3-1.5,0.3h-4.1
				c-0.9-0.1-1.7-0.1-2.6,0c-0.3,0-0.6-0.1-0.8-0.1c-0.8,0.1-1.7,0.2-2.6,0.1C406.7,377.2,406.8,377.1,406.7,376.4z M415.2,375.8
				c2,0.1,4.9-0.3,5.1-2.8c0.4-4.5-4.5-3.9-7.5-3.8c-0.3,0-0.6-0.1-0.7,0.3c0,0.2,0,1.2,0,1.4c0,0.1,0,1,0,1.1c0,1.1-0.2,2.1,0,3.2
				l0,0c0.1,0,0.4,0.2,0.5,0.2C412.9,375.6,414.8,375.8,415.2,375.8z M414.9,368.1c0.2,0,1.4-0.2,1.5-0.2c1-0.1,2-0.5,2.4-1.5
				c0,0,0.2-0.4,0.2-0.6c0-0.3-0.1-1.1-0.1-1.1c0-0.1-0.1-0.5-0.3-0.6c-0.7-0.6-1.4-1-2.3-1c-0.3,0-1.6,0-1.9,0
				c-0.2,0-1.4,0.1-1.6,0.1c-0.4,0-0.6,0-0.9,0.3c-0.1,0.2-0.1,1.3-0.1,1.6c0,0.8-0.1,1.6,0.1,2.4c0,0,0.1,0.2,0.1,0.3
				c0,0,0,0.2,0,0.2c0,0,0.2,0.1,0.3,0.1h2.3C414.7,368,414.8,368.1,414.9,368.1z"/>
			<path fill="#B5E0D6" d="M431.7,377.3c-0.1,0-0.5-0.1-0.6-0.1h0c-0.5,0-2.6,0.1-3.1,0.1c-1.2,0.4-1.7-1.4-1-1.7
				c0.3-0.1,1-0.2,1.3-0.2c0.7,0.1,0.6,0.1,1-0.4c0.1-0.8,0-1.1,0-1.9c-0.1-0.8,0.2-1.7,0-2.4c0-0.3-0.2-0.7-0.1-0.9
				c0-0.2,0.4-0.6,0.1-0.8c-0.2-0.2-0.6-0.1-0.9-0.3c-0.6-0.3-1.8,0.3-1.9-0.7c-0.1-0.5,0-0.8,0.5-1c0.2,0,0.9-0.1,1.1-0.1
				c0.3,0,0.7,0,1-0.1c0.6-0.2,1.3-0.5,2-0.4c1.2,0.2-0.9,3.3,1.4,1.5c0.1-0.1,0,0,0.1-0.2c0-0.1,0.3-0.4,0.4-0.5v-0.2
				c0.3,0.1,0.4-0.2,0.7-0.3c0.5-0.1,1.1-0.4,1.6-0.3c0.3,0,0.7,0.2,1,0.4c0.1,0,0.5,0.3,0.5,0.3c0,0,0.1,0,0.1,0
				c0.2,0.4,0.3,0.5,0.4,0.9c0,0.2-0.1,1.1-0.3,1.4c-0.2,0.4-0.5,0.8-1,0.9c-1.4,0.3-1.9-1.5-2.9-1.1c0,0-0.3,0.2-0.4,0.2
				c0,0-0.1,0-0.1,0.1c-0.2,0.1-1.1,0.7-1.2,0.9c-0.1,0-0.2,0-0.2,0.2c0,0.4,0,2.2,0,2.6c0,0,0,0.5,0,0.6c0,0.5-0.3,1.3,0.1,1.7
				c0.2,0.2,0.9,0,1.1,0c0,0,0.1,0,0.1,0c0.5,0.2,1,0,1.5,0.2c0.5,0.3,0.6,1.6,0,1.8c-0.5,0.2-0.8,0-1.3-0.1
				C432.7,377.3,431.8,377.3,431.7,377.3z"/>
			<path fill="#B5E0D6" d="M442.5,377.1c-0.4,0-0.6,0.1-1.1-0.1c-0.3-0.1-0.4-1.4,0.2-1.5l1.1-0.1c0.1,0,0.3-0.3,0.4-0.4
				c0-0.1,0-0.7,0-0.8c0-0.6-0.1-1.2-0.1-1.9c0-0.3,0.1-0.7,0.1-1c0-0.3-0.1-0.3,0-0.6c0-0.2,0-1.4,0-1.7c0-0.1-0.1-0.5-0.1-0.5
				c-0.4-0.5-1.2-0.3-1.7-0.5c-0.4-0.3-0.3-1.4,0.2-1.4h1.6c0.4-0.1,1.3-0.5,1.7-0.2c0.4,0.2,0.3,2.9,0.1,3.5c0,0.2,0.1,0.5,0,0.7
				c0,0-0.2,0.3-0.2,0.4c0,0.1,0,0.1,0.1,0.2c0.1,0.6,0.1,1.3,0.1,1.8c0,0-0.1,0.2-0.1,0.3c-0.1,0.2-0.1,2.3,0.3,2.3h1.2
				c0.6,0,0.6,0.8,0.5,1.2c-0.2,0.6-1.5,0.6-2,0.5C444.1,377.1,443.3,377.2,442.5,377.1z M442.4,363c0-0.8,0-1.3,0.6-1.8
				c0,0,0.1-0.1,0.2-0.1c0,0,0.1-0.1,0.1-0.1h1c0,0,0.2,0.1,0.3,0.2c0.3,0.3,0.6,0.5,0.7,0.9c0.1,0.6-0.2,1.8-1,1.8h-1
				c0,0-0.1,0-0.2-0.1C442.9,363.7,442.6,363.4,442.4,363z"/>
			<path fill="#B5E0D6" d="M453.3,377c0,0-0.1,0-0.1,0l-1.4-1.4c0-0.1-0.2-0.4-0.2-0.5c0-0.1-0.5-0.8-0.5-0.9c0-0.1-0.2-0.7-0.3-0.8
				c0-0.2,0.1-0.6-0.1-0.8c0-0.9,0-1.8,0.3-2.7c0.3-0.9,1-1.7,1.7-2.3c1.5-1.2,3-1.4,4.8-0.6c0.3,0.4,0.9,0.5,1.4,0.5
				c0.3,0,0.5-0.2,0.5-0.5c0.1-0.4-0.1-0.6-0.1-0.9c0-0.1,0.1-0.6,0.1-0.7c0-0.1,0-1.1,0-1.1c0,0,0.1-0.3,0.1-0.3c0-0.1,0-0.4,0-0.5
				c-0.3-0.5-2.4,0.5-3.1-0.5c-0.2-0.3-0.2-0.6-0.1-0.9c0.2-0.8,0.8-0.7,1.5-0.6c0.4,0,0.9-0.1,1.2-0.1c1.1-0.1,2-1.1,2.8,0.2
				c-0.1,0.9-0.3,1.6-0.3,2.5c0,0,0,0.1,0,0.1c-0.1,0.6,0,1.1-0.1,1.8c0,0.2-0.2,0.7-0.1,1c0.1,0.6,0.1,1.1,0.1,1.7
				c0,0.3,0.2,0.6,0.1,0.9c-0.1,1.1-0.1,2.2-0.3,3.3c0,0.3,0,0.2,0.1,0.5c0,0,0,0.2,0,0.2c0,0-0.1,0.2-0.1,0.3c0,0,0,0.2,0,0.2
				c0,0.2,0.1,1,0.1,1.1c0,0,0,0.5,0,0.5c0.1,0.7,1.7-0.2,2.2,0.3c0.1,0.1,0,0.3,0,0.4c0,0.1,0,0.6,0,0.7c-0.5,0.5-1,0.2-1.6,0.2
				c-0.3,0-0.3,0.1-0.5,0.2c-0.1,0-0.9,0.3-1,0.4c-0.6,0.1-1.4-0.3-1.1-1H459c-0.1,0.1-0.5,0.4-0.6,0.5c0,0-0.4,0-0.4,0.1
				c-0.1,0-0.6,0.3-0.6,0.3c-0.4,0.2-1.6,0.2-2.1,0C454.6,377.5,454,377.2,453.3,377z M458.2,375.5c0,0,0.2,0,0.2,0
				c0,0,0.2-0.2,0.2-0.3c0.4-0.3,0.8-0.4,0.9-1c0-1.2-0.1-2.7-0.1-3.9c0-0.3,0.2-0.9-0.1-1c0,0-0.5-0.2-0.5-0.2
				c-1.2-0.6-1.6-1-3-0.6c-0.2,0-0.5,0.3-0.7,0.4c0,0-0.2,0-0.2,0c-0.2,0.1-0.3,0.3-0.5,0.3l-0.8,0.9c-0.1,0.2-0.3,0.4-0.3,0.6
				c-0.2,0.9-0.2,1.5-0.1,2.4c0.1,1.1,0.4,1.6,1.3,2.2c0.5,0.4,0.7,0.6,1.4,0.6C456.6,375.9,457.3,375.6,458.2,375.5z"/>
			<path fill="#B5E0D6" d="M475.7,377.4c0,0-0.3-0.4-0.3-0.4c-0.1-0.1-0.5-0.2-0.6-0.2c-0.9,0.6-2.2,0.8-3.3,0.9
				c-0.4,0.1-1.2,0-1.6-0.2c-0.2-0.1-0.7-0.3-1.1-0.4l-0.6-0.6c-0.1-0.5-0.7-0.7-0.8-1.5c0-0.1,0-1,0-1.2c0.1-1.9,2.7-2.8,4.2-2.7
				c0.3-0.3,3.4,0,3.4-0.8v-1.3c0,0-0.2-0.5-0.3-0.6c-0.3-0.5-0.9-0.5-1.4-0.5c-0.3,0-0.3-0.2-0.6-0.1c-0.2,0-1,0.1-1.1,0.1
				c-0.4,0.2-0.6,0.7-1.1,0.8c0,0-0.5,0.1-0.6,0.1c-0.3,0-0.7,0.2-1,0.2c-1.4-0.3-1.3-1.4-0.2-2.1c0,0,0.5-0.2,0.6-0.2
				c0,0,0.2-0.2,0.2-0.2c0.1,0,0.7-0.2,0.9-0.2c0,0,0.4,0,0.5,0c0.2,0,0.3-0.2,0.6-0.2h1.3l0.3,0.1c0.6,0,1.6-0.1,2.2,0.3
				c0.2,0.2,1,0.8,1.2,0.9c1.3,1,0.6,2.9,0.7,4.4l-0.1,0.2c0,1.1-0.2,2.2-0.1,3.3c0,0.3,0.4,0.4,0.6,0.4c0.5-0.1,0.8-0.6,1.3-0.7
				c0.8-0.1,0.9,0.5,1.1,1.1c0.2,0.6-0.7,1.1-1.2,1.4c0,0-0.3,0.1-0.4,0.2c-0.5,0.1-1.3,0.3-1.9,0.2
				C476.2,377.8,475.9,377.6,475.7,377.4z M470.9,375.7c0.2,0,1.1,0,1.2,0c0.5,0,2.5-0.2,2.7-1c0-0.1,0-0.5,0-0.6c0-0.2,0-0.8,0-0.9
				c0-0.2-0.1-1-0.4-1h-1.3l-1.9,0.5c-0.2,0.3-0.7,0.3-0.9,0.6c-0.4,0.5-0.9,1.8,0,2.2C470.4,375.5,470.8,375.7,470.9,375.7z"/>
			<path fill="#B5E0D6" d="M484,377.3v-1.1c0-0.7,2.2,0,2.5-0.8c0-0.4,0-2.5,0-3c0-1.1,0.1-2.3,0.1-3.4c0.2-0.4-0.1-0.6-0.1-0.9
				c0-0.2,0-0.8,0-0.8l0.1-0.1c0,0,0-0.6,0-0.8c0-0.7-0.2-1.4,0.1-2.1c0-0.1-0.3-0.6-0.3-0.7c-0.1-0.1-0.8-0.3-1-0.2
				c-0.8,0-1.5,0.2-1.6-0.7c-0.1-0.9,1.1-0.8,1.7-0.9c0,0,0.3,0,0.3,0c0,0,0.3,0,0.3,0c0.2-0.1,1-0.4,1.2-0.5
				c0.5-0.1,1.4-0.1,1.5,0.5c0.1,0.3-0.1,2.3-0.3,2.5c0,0.3,0,1.5,0,1.7c0,0.1,0,0.4,0,0.5v3.1c0,0-0.1,0.2-0.1,0.3
				c-0.1,1.2,0,2.1,0,3.2c0,0.1,0,1-0.1,1.1c0,0.4-0.1,1,0.3,1.2c0.6,0.4,3.1-0.3,2.9,1c-0.1,0.4-0.2,0.8-0.6,1c-0.2,0-1,0-1.1,0
				c-0.1,0-0.6-0.1-0.6-0.1c0,0,0,0-0.1,0c-0.1,0-0.7,0.1-0.8,0.1c-0.1,0-0.8-0.1-0.8-0.1c-0.4,0-0.8,0.1-1.2,0.2c0,0-0.2,0-0.2,0
				c-0.1,0-0.7,0-0.8,0c0,0-0.1,0-0.1,0C485,377.4,484,377.4,484,377.3z"/>
			<path fill="#B5E0D6" d="M505.8,376.4c-0.2-1.8,3.1-0.1,3.1-1.4v-4c0.2-0.6,0-1.3,0-1.9c0-0.1,0-1.3,0.1-1.4c0-0.4,0-2,0-2.4
				c-0.1-0.4,0.2-0.9,0.1-1.3c0-0.1-0.2-0.5-0.2-0.6c-0.4-0.2-1.6-0.2-2.1-0.3c-0.4-0.1-0.5-0.4-0.5-0.8c-0.1-0.6,0.3-1,0.8-1
				c1.2,0,2.3,0,3.4,0.2c2.1,0,4.1-0.1,6.2-0.1c0.9,0.1,1.7,0.6,2.4,1.3c0,0,0.1,0,0.1,0.1c1.6,1.5,1.3,3.3-0.2,4.7
				c-0.3,0.3-0.8,0.5-1.1,0.8c-0.1,0.2,1.5,0.8,1.7,1c1.4,1.1,2.1,2,2,3.9c0,0,0,0.5,0,0.5c0,0.1-0.3,0.8-0.3,0.9
				c-0.5,0.4-0.8,1-1.3,1.5c-0.1,0.1-0.9,0.5-1,0.5c0,0-0.2,0.1-0.2,0.1c-0.1,0.1-0.6,0.3-0.6,0.3c-0.3,0.1-1.4,0.3-1.5,0.3h-4.1
				c-0.9-0.1-1.7-0.1-2.6,0c-0.3,0-0.6-0.1-0.8-0.1c-0.8,0.1-1.7,0.2-2.6,0.1C505.8,377.2,505.8,377.1,505.8,376.4z M514.3,375.8
				c2,0.1,4.9-0.3,5.1-2.8c0.4-4.5-4.5-3.9-7.5-3.8c-0.3,0-0.6-0.1-0.7,0.3c0,0.2,0,1.2,0,1.4c0,0.1,0,1,0,1.1c0,1.1-0.2,2.1,0,3.2
				l0,0c0.1,0,0.4,0.2,0.5,0.2C512,375.6,513.9,375.8,514.3,375.8z M514,368.1c0.2,0,1.4-0.2,1.5-0.2c1-0.1,2-0.5,2.4-1.5
				c0,0,0.2-0.4,0.2-0.6c0-0.3-0.1-1.1-0.1-1.1c0-0.1-0.1-0.5-0.3-0.6c-0.7-0.6-1.4-1-2.3-1c-0.3,0-1.6,0-1.9,0
				c-0.2,0-1.4,0.1-1.6,0.1c-0.4,0-0.6,0-0.9,0.3c-0.1,0.2-0.1,1.3-0.1,1.6c0,0.8-0.1,1.6,0.1,2.4c0,0,0.1,0.2,0.1,0.3
				c0,0,0,0.2,0,0.2c0,0,0.2,0.1,0.3,0.1h2.3C513.8,368,513.9,368.1,514,368.1z"/>
			<path fill="#B5E0D6" d="M528.7,377.2c0,0-0.5-0.4-0.5-0.4c0,0-0.4-0.2-0.4-0.3c-0.2-0.1-0.9-0.8-1-1c0,0-0.1-0.1-0.1-0.2
				c-0.3-0.5-0.6-0.8-0.8-1.4c0-0.2,0-0.3-0.1-0.5c-0.2-0.9-0.1-1.7-0.1-2.6c0,0,0-0.3,0-0.3c0.2-0.6,0.2-1.1,0.4-1.6
				c0.2-0.5,0.7-1,1-1.4c1.1-1.1,2.8-1.5,4.3-1.4c0.1,0,0.3,0.1,0.4,0.1c1.3,0.4,1.9,0.2,3.2,1.2c0.1,0.3,0.5,0.5,0.7,0.7
				c1.2,1.8,1.6,3.7,1,5.8c0,0.1-0.3,0.8-0.3,0.8c-0.1,0.3-0.1,0.6-0.3,0.8c0,0-0.2,0-0.2,0c-1.4,1.1-2.5,2.2-4.4,2
				C530.5,377.5,529.5,377.6,528.7,377.2z M531.1,375.9c0.1,0,0.4,0,0.4,0c0.2,0,1.3-0.3,1.5-0.3c0.1,0,1.2-0.8,1.2-1
				c0,0,0-0.4,0-0.4c0,0,0.1-0.2,0.1-0.3c0.1-0.2,0.3-0.3,0.4-0.6c0.2-0.6,0-1.7-0.1-2.3c0-0.1,0-0.7,0-0.7
				c-0.4-0.6-0.6-1.2-1.2-1.7c0,0-0.1,0-0.1,0c0,0-0.1-0.4-0.2-0.4c-0.4-0.4-1.1-0.6-1.5-0.7c-0.5-0.2-1,0-1.5,0l-1.2,0.5
				c-0.3,0.2-0.5,0.6-0.8,0.9c-0.1,0-0.3,0.3-0.3,0.3c-0.2,0.2-0.2,0.9-0.3,1.2c0,0-0.2,0.4-0.2,0.4c0,0,0.1,0.2,0.1,0.3
				c0,0,0,0.5,0,0.6c0,0-0.1,0.4-0.1,0.5c0,0.9,0.1,1.7,0.6,2.4c0.4,0.6,1,0.8,1.6,1.2c0.1,0,0.5,0,0.6,0
				C530.3,375.9,531,375.9,531.1,375.9z"/>
			<path fill="#B5E0D6" d="M542.9,375.2c-0.4-1-0.3-1.9-0.4-2.9c0-0.4-0.1-1-0.1-1.4c0-0.1,0.1-1.1,0.1-1.2c0-0.2,0-0.9,0-1
				c-0.4-1.1-1.7,0.2-2-1.2c0-0.3,0-0.5,0.3-0.6c0.2,0,1.2-0.1,1.4-0.1c0.7-0.1,0.9-0.5,1.7-0.5c0.2,0,0.5,0.3,0.5,0.5
				c0,0.1,0,0.5,0,0.5c0,0.6-0.1,1.1-0.2,1.6c0,0.2,0.1,0.3,0,0.5c0,0-0.1,0.6-0.1,0.6c0,0.1,0,0.7,0,0.9c0,0.9-0.1,2.1,0.1,3
				c0,0.1,0.8,1.2,0.9,1.3c0.5,0.1,1,0.3,1.5,0.3c0.1,0,0.5,0,0.6,0c0,0,0.4-0.1,0.4-0.1c0,0,0.1,0,0.1,0l1-0.8
				c0.7-0.2,0.8-0.7,1.1-1.3c0-0.3,0-0.2-0.1-0.5c0-0.2,0-0.9,0-0.9l0.1-0.1c0,0,0-0.6,0-0.9c0-0.1,0-0.6-0.1-0.7c0,0,0-0.2,0-0.2
				c0-0.5,0-1.2-0.1-1.7c-0.3-0.4-1.8,0.2-2.1-0.7c-0.3-1.1,0.4-0.9,1.2-1c0.8-0.1,1.4-0.2,2.2-0.5c0.4,0.1,0.6,0.3,0.7,0.7
				c0,0.7,0,1.5-0.1,2.3c0,0,0,0.2,0,0.2v2.8c-0.1,0.4,0.1,0.6,0,0.9c0,0-0.1,0.3-0.1,0.3c0,0,0,0.1,0,0.2c0,0.2,0,1,0.1,1.2
				c0.2,0.9,2.1-0.3,2.3,0.6c0.1,0.2,0.2,0.8,0,1c-0.3,0.4-0.8,0.2-1.3,0.3c-0.1,0-0.6,0.2-0.6,0.2c-0.5,0.1-1.1,0.6-1.7,0.2
				c-0.3-0.2-0.3-1.9-1.1-1.3l-1.2,1c-0.8,0.3-1.5,0.6-2.4,0.5C544,377,543.8,376.4,542.9,375.2z"/>
			<path fill="#B5E0D6" d="M561,377c-0.5-0.4-0.7-0.6-0.9-1.4c0-0.3,0-1.5,0-1.7c0-0.7-0.1-1.4-0.1-2c0-0.8,0.1-1.8,0.1-2.7
				c0-0.1,0.2-1.1-0.2-1.1h-1.2c-0.1-0.3-0.6,0-0.8-0.3c0-0.1,0-0.7,0-0.8c0-0.1,0-0.6,0.3-0.6h1.1c0.3-0.4,0.7-0.6,0.9-1.1
				c0,0,0-0.4,0-0.4c0,0,0-0.4,0-0.4c0-0.3-0.1-0.9,0-1.2c0.2-0.7,0.7-0.9,1.4-0.9c0.3,0,0.6,0,0.7,0.3c0,0.2,0.2,0.7,0,1l-0.2,1.2
				c-0.2,0.1-0.4,1.4-0.1,1.4h1.5c0.3-0.2,0.6-0.2,1-0.2c1.9-0.1,1,1.8,0.5,1.8l-1.1,0h-0.2l-1.1,0c-0.2,0.1-0.6,0.1-0.7,0
				c-0.1,0-0.1,0.6-0.1,0.8c0,0.1-0.1,1-0.1,1.2c0,0.4,0,0.4,0.1,0.9c0,0.3-0.1,0.7-0.1,1c0,0,0,0.1,0,0.1c0,0.1,0.1,0.9,0.1,1
				c0,0.2,0,1.1,0,1.4c0.1,0.8,1.2,1.6,2,1c0.4-0.3,0.7-1.2,1.2-1.3c0.1,0,0.7,0,0.8,0c0.3,0,0.6,0.7,0.5,1c0,0-0.3,0.3-0.3,0.4
				c0,0,0,0.2-0.1,0.2c-0.7,1-1.8,1.6-3,1.9c0,0-0.1,0-0.1,0c-0.2,0-0.9-0.1-1-0.1C561.5,377.5,561.4,377.3,561,377z"/>
			<path fill="#B5E0D6" d="M571.7,377.1c-0.4,0-0.6,0.1-1.1-0.1c-0.3-0.1-0.4-1.4,0.2-1.5l1.1-0.1c0.1,0,0.3-0.3,0.4-0.4
				c0-0.1,0-0.7,0-0.8c0-0.6-0.1-1.2-0.1-1.9c0-0.3,0.1-0.7,0.1-1c0-0.3-0.1-0.3,0-0.6c0-0.2,0-1.4,0-1.7c0-0.1-0.1-0.5-0.1-0.5
				c-0.4-0.5-1.2-0.3-1.7-0.5c-0.4-0.3-0.3-1.4,0.2-1.4h1.6c0.4-0.1,1.3-0.5,1.7-0.2c0.4,0.2,0.3,2.9,0.1,3.5c0,0.2,0.1,0.5,0,0.7
				c0,0-0.2,0.3-0.2,0.4c0,0.1,0,0.1,0.1,0.2c0.1,0.6,0.1,1.3,0.1,1.8c0,0-0.1,0.2-0.1,0.3c-0.1,0.2-0.1,2.3,0.3,2.3h1.2
				c0.6,0,0.6,0.8,0.5,1.2c-0.2,0.6-1.5,0.6-2,0.5C573.3,377.1,572.6,377.2,571.7,377.1z M571.7,363c0-0.8,0-1.3,0.6-1.8
				c0,0,0.1-0.1,0.2-0.1c0,0,0.1-0.1,0.1-0.1h1c0,0,0.2,0.1,0.3,0.2c0.3,0.3,0.6,0.5,0.7,0.9c0.1,0.6-0.2,1.8-1,1.8h-1
				c0,0-0.1,0-0.2-0.1C572.2,363.7,571.8,363.4,571.7,363z"/>
			<path fill="#B5E0D6" d="M585.8,381.8c0-0.6,0.7-0.5,1.2-0.6c0.1,0,0.8-0.1,0.9-0.2c0.1,0,0.2-0.1,0.3-0.2c0-0.1,0.1-0.6,0.1-0.8
				c0.1-0.4,0-0.8,0-1.2c0-0.9,0-1.7-0.1-2.6c-0.2-0.5-0.6,0-0.9,0.1c-0.1,0-0.8,0.3-0.9,0.3c-0.1,0.2-0.5,0.3-0.7,0.3
				c-1.3,0.1-2.4,0.1-3.4-0.8c-0.2-0.1-0.5-0.3-0.6-0.5l-0.8-1.3c-0.2-0.1-0.3-0.7-0.3-0.9c0,0-0.2-0.4-0.2-0.4
				c-0.3-0.8-0.3-1.6-0.2-2.4c0.1-0.7,0.1-1.3,0.3-2c0.6-1.8,2.5-2.8,4.4-2.9c0.3,0,0.2-0.1,0.5,0c0.4,0,1.3,0.2,1.3,0.3l1.7,1
				l0.2,0.2l0.1-0.1c0-0.3,0-1.2,0.3-1.3c0.3-0.1,1.1-0.3,1.4,0c0.2,0.3,0.2,0.9,0.2,1.2c0,0-0.1,0.2-0.1,0.2
				c-0.1,0.4,0.1,1.4,0.1,1.6c0,0-0.1,0.2-0.1,0.3c-0.3,1.2,0,2.2-0.1,3.4c0,0.1-0.1,0.8-0.1,0.9c0,0.3,0.1,0.7,0.1,1
				c0,0.6-0.4,1.5,0,2.1l0,1.1v0.2c0,0.4-0.1,1.1,0.1,1.4v1.5c0,0.2,0.1,0.3,0.3,0.3c0.7-0.1,1.7,0,1.6,0.9c0,0.4-0.1,0.5-0.4,0.8
				c-1.2,0-2.3-0.1-3.6-0.1c-0.7,0-1.2,0.2-1.9,0.1c0,0-0.1-0.1-0.1-0.1C585.7,382.5,585.8,382.1,585.8,381.8z M584.1,375.8h1.5
				c0.6,0,0.7-0.4,1.2-0.5c0.5-0.2,1.2-0.4,1.5-0.9c0.1-0.3,0-0.4,0-0.7c0-0.2,0.1-1,0.1-1.2l0-0.1c0-0.7,0-1.4,0-2.1
				c0-0.2,0-1,0-1.1c-0.1-0.2-0.1-0.4-0.1-0.6c-0.5-0.1-1-0.6-1.4-0.8c-1.1-0.5-2.2-0.4-3.2,0.3c-0.4,0.2-0.8,0.3-1.1,0.6
				c-0.1,0.1-0.1,0.3-0.2,0.5c-0.5,0.7-0.5,1.2-0.5,2c0,0.1,0,0.5,0,0.5l0.1,0.1c-0.1,0.9,0.2,1.5,0.4,2.4c0.2,0.6,1,1.1,1.4,1.5
				C584,375.6,584.1,375.7,584.1,375.8z"/>
			<path fill="#B5E0D6" d="M596.5,375.2c-0.4-1-0.3-1.9-0.4-2.9c0-0.4-0.1-1-0.1-1.4c0-0.1,0.1-1.1,0.1-1.2c0-0.2,0-0.9,0-1
				c-0.4-1.1-1.7,0.2-2-1.2c0-0.3,0-0.5,0.3-0.6c0.2,0,1.2-0.1,1.4-0.1c0.7-0.1,0.9-0.5,1.7-0.5c0.2,0,0.5,0.3,0.5,0.5
				c0,0.1,0,0.5,0,0.5c0,0.6-0.1,1.1-0.2,1.6c0,0.2,0.1,0.3,0,0.5c0,0-0.1,0.6-0.1,0.6c0,0.1,0,0.7,0,0.9c0,0.9-0.1,2.1,0.1,3
				c0,0.1,0.8,1.2,0.9,1.3c0.5,0.1,1,0.3,1.5,0.3c0.1,0,0.5,0,0.6,0c0,0,0.4-0.1,0.4-0.1c0,0,0.1,0,0.1,0l1-0.8
				c0.7-0.2,0.8-0.7,1.1-1.3c0-0.3,0-0.2-0.1-0.5c0-0.2,0-0.9,0-0.9l0.1-0.1c0,0,0-0.6,0-0.9c0-0.1,0-0.6-0.1-0.7c0,0,0-0.2,0-0.2
				c0-0.5,0-1.2-0.1-1.7c-0.3-0.4-1.8,0.2-2.1-0.7c-0.3-1.1,0.4-0.9,1.2-1c0.8-0.1,1.4-0.2,2.2-0.5c0.4,0.1,0.6,0.3,0.7,0.7
				c0,0.7,0,1.5-0.1,2.3c0,0,0,0.2,0,0.2v2.8c-0.1,0.4,0.1,0.6,0,0.9c0,0-0.1,0.3-0.1,0.3c0,0,0,0.1,0,0.2c0,0.2,0,1,0.1,1.2
				c0.2,0.9,2.1-0.3,2.3,0.6c0.1,0.2,0.2,0.8,0,1c-0.3,0.4-0.8,0.2-1.3,0.3c-0.1,0-0.6,0.2-0.6,0.2c-0.5,0.1-1.1,0.6-1.7,0.2
				c-0.3-0.2-0.3-1.9-1.1-1.3l-1.2,1c-0.8,0.3-1.5,0.6-2.4,0.5C597.6,377,597.4,376.4,596.5,375.2z"/>
			<path fill="#B5E0D6" d="M613.3,375.8c0,0-0.2-0.2-0.2-0.3c-0.2-0.4-0.6-0.6-0.8-1c0,0,0-0.4-0.1-0.4c-0.1-0.2-0.3-0.3-0.3-0.6
				c-0.1-0.6,0-0.6-0.2-1c-0.1-0.9,0-1.8,0.3-2.7c0,0,0.1-0.2,0.1-0.2c0.7-1.1,1.5-2.3,2.7-2.9c2.1-0.6,3.8-0.6,5.7,0.6l1.4,1.5
				c0,0,0.1,0.2,0.1,0.2c0,0.1,0.3,0.8,0.3,0.9c0.1,0.4,0.3,1.1-0.1,1.4c-0.2,0.2-1.7,0.4-2,0.4c-0.5-0.1-0.9,0-1.4,0.1
				c-0.3,0-0.5-0.1-0.8-0.1c-0.7,0.1-1.5,0.2-2.2,0.2c-0.5,0-2.2-0.5-2,0.6c0,0.2,0.1,0.9,0.2,1c0.7,1.2,1.4,1.7,2.5,2.2
				c0,0,0.1,0,0.1,0c0.9-0.1,1.9,0,2.7-0.3c0.9-0.3,1.9-2,2.8-0.8c0.1,0.1,0.3,0.4,0.3,0.4v0.8c0,0.6-2.1,1.6-2.8,1.7
				c-0.2,0.1-1.1,0.3-1.2,0.3c0,0-0.3,0-0.4,0c0,0-0.2-0.1-0.3-0.1C616,377.6,614.6,377.2,613.3,375.8z M613.9,370.6
				c1.3,0.1,2.5-0.1,3.7-0.2c0.4,0,2.3-0.2,2.3-0.7c0-0.1,0-0.4,0-0.4l-0.8-0.8c-0.2-0.1-0.3-0.2-0.5-0.3c-0.9-0.5-2-0.3-2.9,0
				c0,0-0.5,0.1-0.6,0.1c-0.4,0.1-0.8,1-1,1.3c-0.1,0.2-0.4,0.6-0.4,0.8C613.7,370.5,613.8,370.6,613.9,370.6z"/>
		</g>
	</g>
	<g>
		<g>
			<g>
				<g>
					<path fill="#B5E0D6" d="M733.5,227.3c-25.9-18.5-42.7-44.6-60.5-70.1c22.4-18.1,40.4-40.5,65.4-54.9c-1.3-5-3.7-5.4-7.6-2.3
						c-9.6,7.7-19.6,15-29.1,23c-11.4,9.6-22.2,19.9-33.5,29.7c-4,3.4-1.5,5.9,0.5,8.5c9.6,12.9,18.6,26.2,28.9,38.4
						c8.6,10.2,18.5,19.3,28.1,28.6c1,1,3,1.1,4.8,1.3c0.6,0.1,1.2,0.2,1.8,0.3c0.2,0,1.1-0.4,0.6-0.2c0.3-0.1,0.7-0.3,0.8-0.6
						C733.9,228.5,733.9,227.9,733.5,227.3C733.5,227.3,733.5,227.3,733.5,227.3z"/>
					<path fill="#B5E0D6" d="M738.5,130c-0.7-0.5-1.3-1-1.9-1.6c-0.4-0.4-1-0.4-1.4-0.1c0,0,0,0-0.1-0.1
						c-12.8,9.9-25.2,19.5-37.8,29.3c7.8,10.5,19.1,32.1,34.1,41.9c0.1,0,0.1-0.1,0.2-0.1c0.4,0.2,0.9,0.2,1.3-0.2
						c0.3-0.3,0.4-0.6,0.4-1c0.1-0.1,0.2-0.1,0.2-0.2c-1.2-2-2.2-4.2-3.6-6c-6.2-8.1-13.2-15.7-18.6-24.3c-5.3-8.4-4-10.5,3.7-16.5
						c7.8-6,15.3-12.4,23.3-18.9c0.2-0.1,0.4-0.2,0.5-0.4c0.1-0.2,0.2-0.4,0.1-0.7C739.2,130.9,739,130.3,738.5,130z"/>
					<path fill="#B5E0D6" d="M735.9,150.7c-2.7,3.5-7,5.7-9.8,9.1c-1.7,2.1-3.7,6.3-2.7,7.8c2.6,4.3,6.5,7.8,10.2,11.3
						c0.2,0.2,0.4,0.3,0.6,0.4c0.1,0.1,0.2,0.2,0.3,0.3c0.7,0.5,1.5,0.9,2.3,1.2c0.2,0.1,0.5,0.1,0.7,0c0.1,0,0.1,0,0.2,0
						c0.9,0,1.6-0.8,1.8-1.6c0.3-1.3-0.2-2.8-1.2-3.7c-0.1-0.2-0.2-0.4-0.3-0.6c-7.4-9.7-7.5-9.6,1.1-18.7c1.6-1.7,3.3-3.3,5.3-5.3
						C741.2,146.2,739,146.8,735.9,150.7z"/>
				</g>
				<g>
					<path fill="#B5E0D6" d="M9.9,233.1c20.7-22.4,41.2-44.9,61.5-67.3c-7-8.7-12.6-16.9-19.4-23.9c-13-13.5-26.6-26.6-40.2-39.6
						c0-0.2,0-0.4-0.1-0.6c-1.1-2.3-4.1-3.6-6.4-2.3c-1,0.6-1.6,2-1.4,3.1c0.2,1,1.5,1.5,2.6,1.8c4,2.7,8.2,5.1,11.4,8.5
						c14.3,15.5,28,31.6,42.1,47.2c3.2,3.6,2.9,6.1,0.1,9.7c-16.1,21.2-34.6,40-54.1,58.1c-0.2,0.2-0.3,0.3-0.5,0.5
						c-0.2,0.1-0.5,0.2-0.7,0.4c-0.3,0.3-0.6,0.7-0.8,1.1c-0.2,0.1-0.5,0.2-0.7,0.3c-0.9,0.5-1.2,1.5-1,2.4c0.1,0.6,0.4,1.1,0.8,1.5
						c0.2,0.3,0.3,0.5,0.5,0.8c0.2,0,0.3-0.1,0.5-0.1c0.8,0.4,1.8,0.4,2.5-0.2c0.4-0.1,0.9-0.3,1.3-0.5
						C8.8,233.9,9.4,233.6,9.9,233.1z"/>
					<path fill="#B5E0D6" d="M36.6,156.4c-8.8-8.7-17.5-17.4-26.5-25.9c-0.1,0-0.1-0.1-0.2-0.1c-0.7-1-2.3-1.6-3.3-2.1
						c-0.5-0.2-1.1-0.1-1.4,0.4c-0.1,0.1-0.1,0.3-0.1,0.4c-0.3,0.2-0.5,0.5-0.6,1c-0.3,1,0.5,1.9,1.2,2.5c0.4,0.4,0.9,0.8,1.4,1.1
						c0,0,0,0.1,0.1,0.1c8.7,8.8,17.6,17.4,26.4,26c3.4,3.3,3.6,6.5,0.4,10.4c-7.8,9.6-15.4,19.4-22.9,29.2c-0.4,0.4-1,0.8-1.4,1.3
						c-0.5,0.5-0.7,1.1-0.9,1.7c-0.2,0.1-0.3,0.3-0.4,0.5c-0.5,1.4-0.4,2.8,0.9,3.6c1.4,0.8,3.5-0.2,4.7-0.9
						c0.1-0.1,0.2-0.2,0.3-0.3c1.3-0.8,2.5-2.2,3.5-3.5c6.7-9.3,13.2-18.7,20-27.9c1.8-2.5,4.6-4.3,8.1-7.6
						C42.9,163,39.8,159.6,36.6,156.4z"/>
					<path fill="#B5E0D6" d="M21.5,163.2c-4.1-2.7-7.8-5.9-11.9-8.6c-0.3-0.2-0.7-0.4-1.1-0.6c-0.5-0.5-1.1-1-1.7-1.3
						c-0.3-0.7-1-0.8-1.6-0.5c-0.1-0.1-0.3-0.2-0.5-0.3c-0.5-0.2-1.1-0.1-1.6,0.1c0,0-0.1,0-0.1,0c-0.3,0-0.5,0.2-0.6,0.4
						c-0.1,0.1-0.2,0.2-0.3,0.3c-0.3,0.5-0.2,1.3,0.2,1.7c0.2,0.2,0.4,0.3,0.6,0.3c4.8,4.5,9.7,8.9,14.9,13.7
						c-3.3,2.6-5.9,4.5-8.2,6.7c-2.3,2.1-4.2,4.6-6.3,6.8c0.4,0.7,0.8,1.5,1.2,2.2c2-0.7,4.2-1.1,5.8-2.3c4-3.2,7.6-7,11.7-10.2
						C26.4,168.3,25.5,165.9,21.5,163.2z"/>
				</g>
			</g>
			<g>
				<path fill="#B5E0D6" d="M392.5,1.9c0-0.5-0.1-1.1-0.6-1.5c-0.5-0.4-1.1-0.5-1.7-0.3c-1,0.4-1.6,1.6-2.3,2.5
					c-0.2,0.2-0.2,0.5-0.2,0.7c-1.1,1.4-2.2,2.8-3.4,4c-11.5,11.6-11.4,11.5-21-1.6c-2.7-3.7-6.1-8.5-10.9-2.4
					c5.3,7.8,9.8,15.4,15.4,22.3c1.4,1.7,7.8,2.3,8.7,1c5.5-7.3,10.1-15.4,15-23.2c0.1-0.1,0.2-0.3,0.3-0.4
					C392.2,2.7,392.5,2.4,392.5,1.9z"/>
				<path fill="#B5E0D6" d="M305.1,8.4c-0.5-0.5-1.3-0.7-1.9-0.5c-0.1,0-0.2,0.1-0.3,0.1c0,0,0,0,0-0.1c-3.3,1.6-6.8,2.8-9.8,4.8
					c-3.5,2.4-6.8,5.2-9.7,8.4c-12,13.1-25.9,15-41.8,7.8c-11.5-5.2-22.9-11.3-35.1-14.4c-36.4-9.3-73.1-18-111.2-14.2
					c-22.1,2.2-43.9,6-61.2,21.4c-8.4,7.5-16,15.9-23.6,24.3c-1.5,1.7-1.5,4.8-1.8,7.3c0,0.3,0.9,0.9,1.8,1.3
					c0.4,1.4,1.1,2.8,2.2,4.1c2.3,2.8,6.6,3.3,10,2.6c0,0,0,0,0,0c0.8,0.1,1.6,0,2.4-0.1c3.4-0.5,6.1-3.5,6.8-6.8
					c0.8-4-1-7.4-4.2-9.7c-0.6-0.4-1.3-0.7-2.1-1c0-1.7,0.1-3.1,0.9-4.2c3.7-5.3,8.7-10,14-13.7C62.3,10.4,87.7,5.3,113.6,6.7
					c24.2,1.3,48.3,6.1,72.3,9.9c7.8,1.3,15.4,4.3,22.9,7c15.1,5.4,30,11.4,45.1,16.7c3.3,1.2,7.5,1.6,10.9,0.7
					c17.1-4.7,28.6-17,39.9-29.4c0,0,0,0,0-0.1c0.5-0.3,0.8-0.8,1-1.3C305.7,9.6,305.6,8.9,305.1,8.4z"/>
				<path fill="#B5E0D6" d="M711.8,11.3C674.1-0.9,635.3-0.9,597,5.2c-29.8,4.8-58.8,14.4-88.3,21.2c-21.7,4.9-44.2,11.4-60.9-12.2
					c-0.9,0.6-1.8,1.2-2.7,1.7c0.6,2.1,0.9,4.5,1.9,6.4c10.4,18.2,28.1,17,44.4,14.3c26.2-4.4,52.3-10.4,77.8-17.6
					c40.1-11.4,80.4-13.2,121-5.6c23.1,4.3,34,14.1,35.9,28.6c-0.3,0.2-0.5,0.4-0.8,0.6c-1.1,1.1-1.7,2.6-1.7,4.1
					c-0.1,0.1-0.1,0.1-0.2,0.2c-2.2,2.1-2.3,6,0,8.2c0.7,0.6,1.4,1.2,2.2,1.8c1.2,0.9,2.7,1,4.1,1.2c2.7,0.3,5.2-1.7,6.5-3.8
					c0.3-0.4,0.5-0.8,0.6-1.2c0.2,0,0.4,0,0.6,0C739.8,36.6,727.1,16.3,711.8,11.3z"/>
				<path fill="#B5E0D6" d="M408.8,10c-0.3-0.6-1-0.7-1.5-0.4c-0.3-0.1-0.6-0.1-0.9,0.1c-0.5,0.3-0.7,0.9-0.8,1.5
					c-1,1.2-1.9,2.3-2.9,3.5c-7.3,8.5-14.2,17.3-21.9,25.4c-5.3,5.5-11,5.3-16-1.4c-6.2-8.2-12.6-16.4-19.1-24.3
					c-0.7-0.9-1.6-1.7-2.6-2.5c-0.1-0.1-0.1-0.3-0.2-0.4c0-0.1-0.1-0.2-0.1-0.2c0-0.4-0.1-0.8-0.4-1.1c-0.9-1.2-2.3-3.3-4-3.3
					c-1.8,0-3.1,1.4-3,3.2c0.1,0.7,0.4,1.3,0.9,1.8c0,0.1,0,0.2,0.1,0.2c7.5,12.2,14.9,24.3,22.6,36.3c2.2,3.4,16,4.2,18.8,1.2
					c8.7-9.2,17.3-18.5,25.6-28c2.4-2.8,3.7-6.6,5.4-10c0.1-0.1,0.1-0.2,0.2-0.4C409.1,10.9,409.1,10.5,408.8,10z"/>
			</g>
			<g>
				<path fill="#B5E0D6" d="M731.7,265.8c0.4-0.8,0.6-1.6,0.5-2.4c-0.2-2.4-1-4.4-2.7-6.1c-1.7-1.7-4-2.6-6.3-2.6
					c-4.3-0.1-7.4,4.2-6.4,8.3c0.1,0.5,0.3,1,0.6,1.4c-7.8,9.8-17.1,16.9-29.3,21.2c-28.7,10-58,8.2-87.1,4.5
					c-36.3-4.6-72.4-10.8-108.5-16.3c0,0.3-0.1,0.7-0.1,1c-2.1-0.2-4.4,0-6.6,0.3c-24.8-3.6-43.9,7-59.1,26.2
					c-1.3,1.7-1.4,5-0.8,7.2c0.3,1.1,3.3,1.5,5.1,2.3c0.8-2.1,1.5-4.3,2.4-6.3c0.9-1.9,1.6-4.2,3.1-5.4
					c13.3-10.6,26.9-20.3,45.5-17.9c22.6,2.8,45.3,5.1,67.9,7.8c14.8,1.8,29.9,2.7,44.4,5.9c25.1,5.6,50,8.4,75.7,4.3
					c23.1-3.8,40.9-17.4,59.9-29.1c1.1-0.7,2.3-2.8,2.1-4C731.7,266,731.7,265.9,731.7,265.8z"/>
				<path fill="#B5E0D6" d="M271.9,277.5c-23.8-7.6-46.9-8.5-69.6,4.5c-11.6,6.6-23.9,12-36.4,16.8c-22.1,8.5-45.3,11.6-69,11.5
					c-27.2-0.1-50.6-8.7-68.8-29.1c0.6-0.3,1.1-0.6,1.5-1.1c0.8-0.9,1.5-1.9,2.1-2.9c0.3,0,0.5,0,0.8-0.1c-0.1-0.3-0.2-0.6-0.3-1
					c1-1.9,1.6-4,1.8-6.3c0.3-4.4-2.4-8.3-6.8-9.1c-8.1-1.5-15.4,6.4-12.6,14.4c0.3,0.9,0.8,1.7,1.4,2.3c2.3,6.8,8.1,11.9,14.1,17
					c16.6,14.1,36.1,21.1,57.3,23.1c9,0.8,18.2-0.3,27.2-0.8c22.1-1,43.2-6.1,63.3-15.7c21.5-10.2,42.1-23,67.6-22.4
					c19.9,0.5,28.8,5.3,37.2,23.9c0.7,1.5,3.1,2.3,4.8,3.4c0.8-1.5,2.4-3,2.4-4.5C290.2,293.3,280.3,280.2,271.9,277.5z"/>
				<path fill="#B5E0D6" d="M396.9,306.9c-0.1-1.4-0.6-2.8-2-3.2C383,292,371.2,280.2,359,268.9c-1-0.9-6.4,1.1-8,3.1
					c-6.1,7.4-11.6,15.4-17.1,23.3c-0.3,0.4-0.5,0.8-0.7,1.2c-1.1,1-1.9,2.3-2.2,3.8c-0.3,0.2-0.7,0.5-1,0.8
					c-0.9,0.9-1.6,2.5-0.5,3.5c0.9,0.9,3,0.5,4.1,0.1c1.5-0.5,2.7-1.6,3.8-2.7c10.2-5.3,12.1-18,21-25.3
					c9.2,9.3,18.3,18.5,27.5,27.5c2.1,2,4.9,3.3,7.4,4.9c0-0.1,0.1-0.1,0.1-0.2c0.5,0.4,1.2,0.7,1.8,0.7c1,0,1.6-0.6,1.8-1.5
					c0-0.1,0-0.3,0.1-0.4C397,307.6,397,307.3,396.9,306.9z"/>
				<path fill="#B5E0D6" d="M378.3,316.2c-0.5-2.5-1.9-4.4-4.1-5.3c-4.8-5.2-9.7-12.9-15.2-13.5c-5-0.5-10.8,7.6-16.2,11.9
					c-0.7,0.6-1.6,1.1-2.2,1.7c-0.3,0.2-0.7,0.3-1,0.6c-0.4,0.4-0.7,0.8-0.9,1.3c-0.7,1.2-1.2,2.4-1.4,3.8c-0.1,0.5,0.2,1,0.7,1.2
					c1.3,0.7,2.5,0.3,3.6-0.5c0.6-0.1,1-0.3,1.4-0.6c0.3,0,0.7-0.2,1.1-0.6c0.1-0.1,0.1-0.2,0.2-0.3c0.1,0,0.1-0.1,0.2-0.1
					c0.9-0.6,1.7-1.4,2.5-2.2c0.4-0.3,0.8-0.6,1.2-0.9c1.4-1.4,2.3-2.8,4-4c1-0.7,1.8-1.3,2.4-2.2c0.8-0.4,1.6-0.7,2.4-0.6
					c4.9,0.4,9.3,6.6,13.9,10.2c0.8,0.6,1.7,1.2,4.1,2.8c0.3,0.4,0.7,0.7,1.2,0.8c0.2,0.1,0.4,0.3,0.6,0.4c0-0.1,0-0.2-0.1-0.3
					c0.1,0,0.3,0.1,0.4,0.1c0.5,0.1,1.1-0.2,1.2-0.7C378.9,318.2,378.8,317.1,378.3,316.2z"/>
			</g>
		</g>
		<g>
			<path fill="#B5E0D6" d="M347.1,150c3.4-5.8,6.7-11.1,9.6-16.5c5.3-9.8,2.5-19.4-3-28.4c-3.2-5.2-9.7-6.2-16.3-4.1
				c-4.4,1.4-9.5,2.5-9.1,7.9c1.2,13.8,2.3,27.6,3,41.4c0.7,13.2,0.7,26.5,1.3,39.7c0.3,5.4,1.1,10.8,2.3,16.1
				c0.9,4,4.8,5.6,9.2,3.6c4.1-1.9,8.8-4.1,11.1-7.2C367,186.9,366.7,163.8,347.1,150z M338.3,109.2c0.9-0.6,1.9-1.3,2.9-1.7
				c0.9,0,1.8-0.1,2.7-0.1c0.1,0,0.2,0,0.3-0.1c1.8,0.7,3.4,1.4,3.4,2.1c0.8,8,1.5,16.2,0.5,24.2c-0.5,3.9-4.8,7.4-8.4,12.7
				c-0.8-13.2-1.7-24.2-2.1-35.2C337.6,110.5,337.9,109.8,338.3,109.2z M342.6,204c-1.2-16.3-2.3-32-3.5-48.5
				c10.4,2.3,12.2,8.6,13.9,14.2C357,183.3,352.6,198,342.6,204z"/>
			<path fill="#B5E0D6" d="M420,187.2c-1.1-10.8-2.3-21.6-14.8-28.7c13-10.9,12.7-24.3,10-37.1c-2-9.5-7-18.7-21.9-21.3
				c-6.9-1.2-7.6,0.4-7.2,4.9c0.7,7.8,1.6,15.6,1.7,23.3c0.2,11.4-0.6,22.8-0.2,34.1c0.4,11.1,1.5,22.2,2.7,33.3
				c-0.5,2.9-0.7,5.8-0.6,8.8c0,1.6,2.8,2.7,4.2,1.4c1.2-1.1,1.9-2.5,2.3-4c0.6-1.1,1-2.3,1-3.6c0.3-0.5,0.5-1,0.6-1.5
				c1-10.4,1.5-20.8,2.2-31.1c0.6-0.3,1.2-0.7,1.7-1c2.7,4.3,7,8.3,7.9,12.8c1.9,9.5,1.9,19.3,3.1,29c0,0.1,0,0.2,0.1,0.3
				c-0.2,0.2-0.2,0.5-0.1,0.9c0.6,2,1.8,3.8,4.1,3.3c0,0,0,0,0.1,0c0,0,0.1,0,0.1,0.1c0,0,0.1-0.1,0.1-0.1c1-0.3,1.9-1.3,2.4-2.4
				c0.7-0.8,1.3-1.5,1.3-2.3C420.8,199.8,420.6,193.5,420,187.2z M397.8,154.7c-1.1-15.8-2.1-31.3-3.2-47.8
				c10.1,3.5,10.4,11,12.6,16.7C411.3,134.8,406.7,148.6,397.8,154.7z"/>
			<path fill="#B5E0D6" d="M160.5,198.8c-2.5-15.9-4.2-31.9-7.7-47.6c-3-13.4-7.7-26.6-12.5-39.6c-0.2-0.6-0.7-1.2-1.3-1.7
				c-0.7-2.5-4.4-4.7-7.7-4.7c-0.1,0-0.1-0.1-0.2-0.1c0,0-0.1,0.1-0.1,0.1c-0.4,0-0.9,0.1-1.3,0.1c-1.7,0.4-3.4,2.8-4.1,4
				c-0.3,0.5-0.5,1.1-0.7,1.7c-0.3,0.5-0.6,1-0.6,1.6c-2.4,16.7-4.1,33.5-5.7,50.2c-0.8,7.7-0.8,15.5-1.3,23.3
				c-0.4,5.8-1.3,11.6-1.2,17.4c-0.7,1.5-0.8,3.2,0.7,4.1c1.1,0.6,2.5,0.9,3.8,0.7c0,0,0,0,0,0c0,0,0,0,0,0c1.3-0.2,2.5-0.8,2.9-1.9
				c0.7-0.5,1.2-1,1.2-1.5c1-9.9,1.5-19.7,2.2-30.8c0-0.5,0.4-2.3,0-4c-1.2-4.8,1.4-6,7-6.3c11.2-0.7,11.2-1,13.3,8.1
				c0.6,2.8,1,5.5,1.5,8.3c1.4,7.4,2.7,14.9,4.4,22.3c0.1,0.6,0.6,1.1,1.1,1.7c0.3,0.4,0.6,0.8,1.1,1.1c0.1,0.1,0.2,0.1,0.3,0.2
				c0.3,0.2,0.6,0.5,0.8,0.8c0.2-0.2,0.5-0.5,0.7-0.7c0.1,0,0.1-0.1,0.2-0.1c0,0,0,0,0,0c1.6,0.4,2.8-0.7,2.9-1.9
				c0.1-0.3,0.1-0.8,0-1.4c0-0.1,0.1-0.1,0.1-0.2C161.1,201.2,160.6,199.9,160.5,198.8z M128.6,158.6c0.9-14.4,1.8-28.4,2.7-42.4
				c1,0,1.9-0.1,2.9-0.1c4,13.4,8,26.7,12.2,40.8C138.4,157.7,132.8,158.2,128.6,158.6z"/>
			<path fill="#B5E0D6" d="M519.3,149.3c-1.7-14-5.6-27.5-17.5-38.6c-5.4-5-12-8.7-20.3-9.3c0.2,35.9,0.5,71,0.7,106.1l0.2,0.1
				c0,0.2,0.1,0.4,0.3,0.5c0.7,0.7,1.8,1,2.8,0.8c0.1,0.1,0.3,0.1,0.4,0.2c3.5-1.7,7.6-2.9,10.4-5.1
				C515.4,188.9,521.8,170.3,519.3,149.3z M489.7,199.8c0-30.6,0.1-60,0.1-90.1C515.6,128.7,521.5,178,489.7,199.8z"/>
			<path fill="#B5E0D6" d="M575.3,205.6c2.1-1.7,0-3.7-1.9-4c-4.7-0.8-9.8-0.5-14.7-0.1c-1.5-0.1-3-0.3-4.4-0.8
				c-0.6-14.8-1.3-29.9-1.9-45.3c5.4,0,9.7,0.1,13.9-0.1c2,0.1,3.9,0,5.9-0.1c0.7,0,1.1-0.5,1.2-1.2c0-0.3,0-0.7,0-1
				c0,0,0.1,0,0.1-0.1c0,0-0.1-0.1-0.1-0.1c-0.1-1-0.3-2-1.1-2.8c-0.9-0.9-2.4-1-3.6-0.6c-0.1,0.1-0.2,0.1-0.3,0.2
				c-0.2-0.1-0.4-0.1-0.7-0.1c-4.8-0.5-9.7-0.1-15-0.1c-0.4-13.3-0.8-26-1.2-39.4c4.9,0,9.5,0.2,14.1-0.1c0.3,0,0.7-0.1,1-0.2
				c0.1,0,0.3,0,0.4,0c0.9,0,1.7-0.1,2.6-0.2c0.4-0.1,0.7-0.5,0.8-0.8c0.1-0.3,0.1-0.7,0.1-1c0,0,0.1,0,0.1,0c0,0-0.1,0-0.1-0.1
				c-0.1-0.8-0.5-1.4-1.3-1.7c-1.7-1.7-5.1-1.7-7.7-1.6c-3.4-0.4-6.8-0.7-10.2-1.1c-6.7-0.7-9.2,1.1-8.7,6.9
				c1.3,16,1.7,32.1,2.4,48.2c0.6,14.5,1.1,29.1,2,43.6c0.1,1.9,2.7,5.2,4.2,5.3c7.6,0.1,15.3-0.6,24.6-1.1
				C575.6,206,575.4,205.8,575.3,205.6C575.3,205.6,575.3,205.6,575.3,205.6z"/>
			<path fill="#B5E0D6" d="M206.9,204.2c-0.8,0-1.7-0.1-2.5-0.1c-0.2,0-0.4-0.1-0.6-0.1c-16.3-0.5-16.3-0.5-15.4-13.2
				c0.1-1.1,0.1-2.2,0.2-3.3c0.1,0,0.2,0,0.4,0c-1-25.8-1.9-51.7-3.2-77.5c-0.2-3.1,3.5-9-3.7-8.8c-7.8,0.2-4.4,6.5-4.3,9.9
				c0.5,18.6,1.8,37.3,2.4,55.9c0.4,12.4-0.3,24.9-0.1,37.3c0,1.6,2.2,4.4,3.7,4.5c6.8,0.6,13.7,0.7,20.5,0.4c0.1,0,0.1,0,0.2,0
				c0.6,0.2,1.2,0.2,1.9,0c0.2,0,0.3-0.1,0.4-0.2c0.1,0,0.2,0,0.3-0.1c0.2-0.1,0.3-0.1,0.5-0.2C209.9,207.9,209.5,204.4,206.9,204.2
				z"/>
			<path fill="#B5E0D6" d="M615.8,156.1c-7.4-5.6-16.6-10.8-17.1-19.8c-0.4-7-0.3-14.3,1.6-21.1c1.5-5.4,8.7-4.7,14.5-5
				c0.3,0,0.6-0.1,0.9-0.3c0.4,0.3,0.9,0.4,1.3,0.2c2.9-1.3,2.4-4.3,0.3-6.2c-3-2.7-10.1,0.1-13.4,0.7c-3.5,0.7-8.7,1-10.8,4.4
				c-1.3,2.1-2,4.6-2.3,7.2c-4.6,12.1-1.7,27,9,36.2c6.8,5.8,13.5,11.8,19.2,18.4c6.5,7.6,4.6,16.2-0.3,23.5
				c-1.9,2.8-6.9,4.3-11.4,6c-1.1-1.3-2.3-2.7-4-3.3c-0.5-0.2-1-0.3-1.5-0.3c-1.3-0.6-3.3-0.2-3.7,1.1c-0.5,2.1-0.2,4.3,1.4,6
				c0.7,0.8,1.6,1.3,2.6,1.6c0.4,0.2,0.9,0.4,1.3,0.5c1.1,0.6,2.3,0.8,3.7,0.5c0.1,0,0.2,0,0.3,0c7.2-1,14.6-2.3,18.3-8.3
				C635.2,183.3,631.1,167.6,615.8,156.1z"/>
			<path fill="#B5E0D6" d="M258.4,109.6c-10.9-0.2-21.9-0.2-32.8,0c-2.6,0-5.3,1.1-8.3,1.7c3.8,7.2,10.7,2.7,15.6,4.1
				c1,27.9,2.1,55.7,3.2,85.6c0.1,0,0.1-0.1,0.2-0.1c0,0.2,0,0.3,0,0.5c0,0.2,0,0.5,0,0.7c0,1.7-1,5.1,1.5,6.1
				c0.8,0.3,1.6,0.2,2.3,0c1.1,0,2.2-0.7,2.4-1.9c0.5-3.9,0.9-7.7,1.3-11.6c0.1-0.5-0.1-0.9-0.4-1.2c0.2-9.4,0-18.9-0.3-28.3
				c-0.6-16.5-1.5-32.9-2.3-49.9c6.2,0,11.7,0.3,17-0.2c1.8-0.2,3.4-2.2,5-3.4C261.3,111,259.9,109.7,258.4,109.6z"/>
			<path fill="#B5E0D6" d="M456.8,107.5c0.3-0.6,0.3-1.4-0.5-2c-2.1-1.7-5.5-2.9-7.9-0.8c-1.3,1.1-1.2,2.6-0.7,4
				c-0.2,1-0.2,2.1,0,3.2c0.1,1.1,0.3,2.2,0.5,3.3c0.3,2.8,0.9,5.5,0.7,8.3c-0.8,15.4-1.9,30.8-3.2,50.5c0,4.9-0.1,14,0.2,23.2
				c0.1,3.5-2.5,8.1,4.4,9.8c0,0,0-0.1,0-0.1c2.1,0.2,2.8-4.2,3.1-8.5c0.1-0.4,0.1-0.7,0.1-1.1c1.1-20.3,2-40.6,2.7-60.9
				c0.3-8.1,0.6-16.2,0.1-24.3c0.1-0.2,0.2-0.4,0.2-0.6C456.7,110.1,456.8,108.8,456.8,107.5z"/>
			<circle fill="#B5E0D6" cx="262.8" cy="204.3" r="3.5"/>
		</g>
	</g>
</g>
</svg>
